<?xml version="1.0" encoding="iso-8859-1"?>
<!-- Generator: Adobe Illustrator 19.0.0, SVG Export Plug-In . SVG Version: 6.00 Build 0)  -->
<svg version="1.1" id="Capa_1" xmlns="http://www.w3.org/2000/svg" xmlns:xlink="http://www.w3.org/1999/xlink" x="0px" y="0px"
	 viewBox="0 0 512 512" style="enable-background:new 0 0 512 512;" xml:space="preserve">
<path style="fill:#FFAF68;" d="M217,51.018c-0.999-0.139-2.017-0.216-3.054-0.216c-12.142,0-21.985,9.861-21.985,22.027
	c0,12.165,9.844,22.026,21.985,22.026c1.037,0,2.055-0.077,3.054-0.217V51.018z"/>
<path style="fill:#08375E;" d="M88.502,349v-22.957c0-19.267,15.643-34.941,34.87-34.941c19.228,0,34.87,15.675,34.87,34.941V349h15
	v-22.957c0-27.538-22.372-49.941-49.87-49.941c-27.499,0-49.87,22.403-49.87,49.941V349H88.502z"/>
<path style="fill:#FCC96C;" d="M171.377,462.809c-0.195,2.974-2.793,5.406-5.773,5.406H81.142c-2.98,0-5.58-2.433-5.774-5.406
	l-6.734-102.5c-0.195-2.975,2.083-5.407,5.063-5.407h99.353c2.98,0,5.259,2.433,5.063,5.407L171.377,462.809z"/>
<path style="opacity:0.1;fill:#231F20;enable-background:new    ;" d="M99.017,462.809l-6.735-102.5
	c-0.196-2.975,2.083-5.407,5.063-5.407H73.697c-2.98,0-5.259,2.433-5.063,5.407l6.734,102.5c0.195,2.974,2.794,5.406,5.774,5.406
	h23.648C101.81,468.215,99.211,465.782,99.017,462.809z"/>
<path style="fill:#FFBB4A;" d="M188.373,363.534c0,2.98-2.438,5.42-5.418,5.42H63.791c-2.98,0-5.418-2.44-5.418-5.42v-11.48
	c0-2.981,2.438-5.42,5.418-5.42h119.164c2.98,0,5.418,2.438,5.418,5.42V363.534z"/>
<path style="opacity:0.1;fill:#231F20;enable-background:new    ;" d="M87.935,363.534v-11.48c0-2.981,2.438-5.42,5.419-5.42H63.791
	c-2.98,0-5.418,2.438-5.418,5.42v11.48c0,2.98,2.438,5.42,5.418,5.42h29.563C90.373,368.954,87.935,366.515,87.935,363.534z"/>
<path style="fill:#FFBB4A;" d="M426.058,379.518c0,2.832-2.318,5.15-5.151,5.15h-10.429c-2.833,0-5.151-2.318-5.151-5.15V84.979
	c0-2.833,2.318-5.15,5.151-5.15h10.429c2.833,0,5.151,2.317,5.151,5.15V379.518z"/>
<path style="fill:#78A7AF;" d="M430.965,403.135c0,2.833-2.318,5.15-5.151,5.15H405.57c-2.833,0-5.15-2.317-5.15-5.15v-28.056
	c0-2.833,2.317-5.15,5.15-5.15h20.244c2.833,0,5.151,2.317,5.151,5.15V403.135z"/>
<path style="fill:#E6E9ED;" d="M415.692,512c-0.707,0-1.414-0.153-2.071-0.458c-21.452-9.958-35.864-36.576-35.864-66.236
	c0-16.863,4.651-33.166,13.098-45.905c0.913-1.379,2.454-2.206,4.104-2.206h41.468c1.65,0,3.19,0.827,4.103,2.206
	c8.447,12.739,13.098,29.042,13.098,45.905c0,29.66-14.412,56.278-35.863,66.236C417.107,511.847,416.4,512,415.692,512z"/>
<path style="fill:#ABCCD3;" d="M433.212,397.194h-15v39.509c0,4.143,3.358,7.5,7.5,7.5s7.5-3.357,7.5-7.5V397.194z"/>
<polygon style="fill:#08375E;" points="244.531,493 244.531,341.635 274.48,341.635 274.48,493 312.988,493 312.988,310.418 
	206.023,310.418 206.023,493 "/>
<g>
	<path style="fill:#78A7AF;" d="M189.104,506.85c0,2.832,2.317,5.15,5.15,5.15h46.867c2.833,0,5.151-2.318,5.151-5.15v-13.238
		c0-2.833-2.318-5.15-5.151-5.15h-46.867c-2.833,0-5.15,2.317-5.15,5.15V506.85z"/>
	<path style="fill:#78A7AF;" d="M272.548,506.85c0,2.832,2.318,5.15,5.151,5.15h46.867c2.833,0,5.15-2.318,5.15-5.15v-13.238
		c0-2.833-2.317-5.15-5.15-5.15H277.7c-2.833,0-5.151,2.317-5.151,5.15v13.238H272.548z"/>
</g>
<path style="fill:#34A1D7;" d="M351.954,198.128c-0.699-0.143-1.972-0.871-2.452-1.399l-32.318-54.523
	c-0.307-0.519-0.643-1.01-1-1.475c-2.311-5.173-7.494-8.805-13.491-8.805H216.32c-5.762,0-10.768,3.355-13.203,8.205
	c-0.992,0.842-1.89,1.829-2.657,2.959l-87.313,128.573l32.322,5.049l56.069-82.565v120.222c0,2.714,2.217,4.935,4.927,4.935h106.08
	c2.71,0,4.926-2.221,4.926-4.935V200.69l6.707,11.314c5.404,9.116,17.008,15.732,27.592,15.732h53.557v-29.609h-53.373V198.128z"/>
<path style="fill:#B1E8FF;" d="M267.005,319.303V146c0-4.143-3.358-7.5-7.5-7.5s-7.5,3.357-7.5,7.5v173.303L267.005,319.303
	L267.005,319.303z"/>
<path style="fill:#FFCFAB;" d="M410.06,235.634c-5.666,0-10.302-4.636-10.302-10.302v-24.799c0-5.666,4.636-10.302,10.302-10.302
	h11.266c5.666,0,10.302,4.636,10.302,10.302v24.799c0,5.666-4.636,10.302-10.302,10.302H410.06z"/>
<path style="fill:#B1E8FF;" d="M295.168,134.841c0.565-1.604-0.363-2.915-2.063-2.915h-67.2c-1.699,0-2.638,1.314-2.084,2.921
	l11.878,34.483c0.554,1.606,1.982,1.93,3.172,0.716l18.469-18.799c1.191-1.213,3.134-1.206,4.316,0.015l18.183,18.77
	c1.183,1.22,2.612,0.907,3.178-0.696L295.168,134.841z"/>
<path style="fill:#FFAF68;" d="M305.054,50.802c-1.037,0-2.055,0.077-3.054,0.216v43.621c0.999,0.14,2.017,0.217,3.054,0.217
	c12.142,0,21.984-9.861,21.984-22.026C327.038,60.663,317.195,50.802,305.054,50.802z"/>
<path style="fill:#FFCFAB;" d="M211.26,47.041v57.604c0,18.25,14.765,33.042,32.977,33.042h30.535
	c18.214,0,32.978-14.792,32.978-33.042V47.041H211.26z"/>
<path style="opacity:0.1;fill:#231F20;enable-background:new    ;" d="M233.911,104.646V47.041h-22.65v57.604
	c0,18.25,14.765,33.042,32.977,33.042h22.65C248.675,137.688,233.911,122.896,233.911,104.646z"/>
<g>
	<path style="fill:#B1E8FF;" d="M303.605,218.971c0,2.05-1.678,3.727-3.727,3.727h-17.546c-2.05,0-3.727-1.678-3.727-3.727v-23.788
		c0-2.048,1.677-3.726,3.727-3.726h17.546c2.049,0,3.727,1.678,3.727,3.726V218.971z"/>
	<path style="fill:#B1E8FF;" d="M240.605,218.971c0,2.05-1.677,3.727-3.727,3.727h-17.546c-2.049,0-3.727-1.678-3.727-3.727v-23.788
		c0-2.048,1.678-3.726,3.727-3.726h17.546c2.05,0,3.727,1.678,3.727,3.726V218.971z"/>
</g>
<g>
	<path style="fill:#AB5436;" d="M246.745,81.396V72.83c0-4.143-3.358-7.5-7.5-7.5s-7.5,3.357-7.5,7.5v8.566
		c0,4.143,3.358,7.5,7.5,7.5S246.745,85.538,246.745,81.396z"/>
	<path style="fill:#AB5436;" d="M279.766,65.329c-4.142,0-7.5,3.357-7.5,7.5v8.566c0,4.143,3.358,7.5,7.5,7.5s7.5-3.357,7.5-7.5
		v-8.566C287.266,68.687,283.908,65.329,279.766,65.329z"/>
	<path style="fill:#AB5436;" d="M273.129,97.709c-4.027-0.97-8.079,1.504-9.051,5.531c-0.51,2.112-2.391,3.588-4.573,3.588
		s-4.063-1.476-4.573-3.588c-0.973-4.027-5.029-6.507-9.051-5.528c-4.026,0.973-6.502,5.025-5.529,9.052
		c2.143,8.869,10.019,15.064,19.153,15.064c9.136,0,17.012-6.196,19.154-15.068C279.631,102.733,277.155,98.682,273.129,97.709z"/>
</g>
<path style="fill:#34A1D7;" d="M343.343,34.041H307.75V15.544C307.75,6.995,300.813,0,292.332,0h-65.654
	c-8.48,0-15.418,6.995-15.418,15.544v33.497h132.083c4.142,0,7.5-3.357,7.5-7.5S347.485,34.041,343.343,34.041z"/>
<path style="opacity:0.1;fill:#231F20;enable-background:new    ;" d="M249.329,0h-22.65c-8.48,0-15.418,6.995-15.418,15.544v33.497
	h22.65V15.544C233.911,6.995,240.848,0,249.329,0z"/>
<path style="fill:#ABCCD3;" d="M394.843,397.194v50.358c0,4.143,3.358,7.5,7.5,7.5s7.5-3.357,7.5-7.5v-50.358H394.843z"/>
<path style="opacity:0.1;fill:#231F20;enable-background:new    ;" d="M400.132,445.306c0-16.863,4.651-33.166,13.098-45.905
	c0.913-1.379,2.454-2.206,4.103-2.206h-22.375c-1.65,0-3.191,0.827-4.104,2.206c-8.446,12.739-13.098,29.042-13.098,45.905
	c0,29.66,14.412,56.278,35.864,66.236c0.657,0.305,1.364,0.458,2.071,0.458c0.708,0,1.415-0.153,2.072-0.458
	c3.205-1.487,6.25-3.354,9.116-5.542C410.563,493.555,400.132,470.533,400.132,445.306z"/>
<path style="fill:#FFCFAB;" d="M149.372,293.182c0,6.5-5.318,11.818-11.819,11.818h-28.362c-6.501,0-11.819-5.318-11.819-11.818
	v-11.467c0-6.5,5.318-11.818,11.819-11.818h28.362c6.5,0,11.819,5.318,11.819,11.818V293.182z"/>
<g>
</g>
<g>
</g>
<g>
</g>
<g>
</g>
<g>
</g>
<g>
</g>
<g>
</g>
<g>
</g>
<g>
</g>
<g>
</g>
<g>
</g>
<g>
</g>
<g>
</g>
<g>
</g>
<g>
</g>
</svg>
