<svg height="467pt" viewBox="-63 0 467 467.66" width="467pt" xmlns="http://www.w3.org/2000/svg"><path d="m280.070312 227.789062c0-17.878906 13.53125-32.367187 30.21875-32.367187h.671876c16.660156 0 30.179687 14.429687 30.21875 32.277344.140624 58.390625.050781 64.121093-.03125 151.332031-.046876 48.96875-37.117188 88.628906-82.828126 88.628906h-98.140624c-30.03125 0-57.71875-17.421875-72.351563-45.519531l-87.5-168.109375 9.140625-7.582031c18.929688-17.398438 47.402344-15.257813 63.871094 4.789062l24.488281 29.8125.140625-205.089843c.011719-17.871094 13.542969-32.351563 30.222656-32.351563h.007813c16.691406 0 30.222656 14.5 30.222656 32.378906v124.121094c.398437-17.5 13.769531-31.53125 30.199219-31.53125h.707031c16.691406 0 30.222656 14.492187 30.222656 32.371094v10.421875c0-17.882813 13.527344-32.371094 30.230469-32.371094h.070312c16.6875 0 30.21875 14.488281 30.21875 32.371094zm0 0" fill="#f7caa5"/><path d="m128.089844 0c-39.4375.0429688-71.394532 32.003906-71.441406 71.441406 0 4.417969 3.582031 8 8 8 4.417968 0 8-3.582031 8-8 0-30.621094 24.824218-55.441406 55.441406-55.441406 30.617187 0 55.441406 24.820312 55.441406 55.441406 0 4.417969 3.582031 8 8 8s8-3.582031 8-8c-.046875-39.4375-32.003906-71.3984372-71.441406-71.441406zm0 0" fill="#fedb41"/></svg>