<svg id="Layer_1" enable-background="new 0 0 512 512" height="512" viewBox="0 0 512 512" width="512" xmlns="http://www.w3.org/2000/svg"><g><g><g><g id="XMLID_1382_"><g id="XMLID_1383_"><g id="XMLID_1384_"><g id="XMLID_1385_"><g id="XMLID_1390_"><g id="XMLID_1391_"><g id="XMLID_1410_"><g id="XMLID_1411_"><g id="XMLID_1412_"><g id="XMLID_1413_"><g id="XMLID_1414_"><g id="XMLID_1415_"><g id="XMLID_1416_"><g id="XMLID_1417_"><g id="XMLID_1418_"><circle cx="256" cy="256" fill="#ff3d7d" r="256"/></g></g></g></g></g></g></g></g></g></g></g></g></g></g></g></g></g><path d="m512 256c0-32.649-6.124-63.865-17.266-92.578l-83.423-83.422-347.643 322 87.702 87.702c31.944 14.324 67.355 22.298 104.63 22.298 141.385 0 256-114.615 256-256z" fill="#d01273"/><g><g><path d="m264.928 330.909-8.928-80.991-8.928 80.991-94.224 17.773-78.883-17.773 26.722-184.429 14.417-11.343h281.792l14.417 11.343 26.722 184.429-96.739 17.773z" fill="#7be2f6"/><path d="m438.03 330.91-96.73 17.77-76.37-17.77-8.93-80.99v-114.78h140.9l14.41 11.34z" fill="#2ebeef"/><path d="m126.345 239.103 35.85 21.088 73.561-125.054h-48.255z" fill="#f2f2fc"/><path d="m324.499 135.137h-48.255l73.561 125.054 35.85-21.088z" fill="#d8e9fe"/><path d="m100.688 80h310.623v66.485h-310.623z" fill="#ffe67b"/><path d="m256 80h155.31v66.48h-155.31z" fill="#ffca45"/></g><path d="m73.965 330.909h173.107l-7.841 71.091h-175.563z" fill="#f2f2fc"/><path d="m448.332 402h-175.563l-7.841-71.091h173.107z" fill="#d8e9fe"/></g></g></svg>