<?xml version="1.0" encoding="iso-8859-1"?>
<!-- Generator: Adobe Illustrator 21.0.0, SVG Export Plug-In . SVG Version: 6.00 Build 0)  -->
<svg xmlns="http://www.w3.org/2000/svg" xmlns:xlink="http://www.w3.org/1999/xlink" version="1.1" id="Capa_1" x="0px" y="0px" viewBox="0 0 512 512" style="enable-background:new 0 0 512 512;" xml:space="preserve" width="512" height="512">
<g>
	<path style="fill:#D8D5ED;" d="M439.5,512h-367c-2.209,0-4-1.791-4-4V4c0-2.209,1.791-4,4-4h367c2.209,0,4,1.791,4,4v504   C443.5,510.209,441.709,512,439.5,512z"/>
	<path style="fill:#BEBADE;" d="M412.593,0v512H439.5c2.209,0,4-1.791,4-4V4c0-2.209-1.791-4-4-4H412.593z"/>
	<g>
		<path style="fill:#50536E;" d="M142.676,129.577h226.648c4.143,0,7.5-3.358,7.5-7.5s-3.357-7.5-7.5-7.5H142.676    c-4.142,0-7.5,3.358-7.5,7.5S138.534,129.577,142.676,129.577z"/>
		<path style="fill:#50536E;" d="M142.676,163.955h132.478c4.143,0,7.5-3.358,7.5-7.5s-3.357-7.5-7.5-7.5H142.676    c-4.142,0-7.5,3.358-7.5,7.5S138.534,163.955,142.676,163.955z"/>
		<path style="fill:#50536E;" d="M369.324,395.434H142.676c-4.142,0-7.5,3.358-7.5,7.5s3.358,7.5,7.5,7.5h226.648    c4.143,0,7.5-3.358,7.5-7.5S373.467,395.434,369.324,395.434z"/>
		<path style="fill:#50536E;" d="M369.324,429.812H142.676c-4.142,0-7.5,3.358-7.5,7.5s3.358,7.5,7.5,7.5h226.648    c4.143,0,7.5-3.358,7.5-7.5S373.467,429.812,369.324,429.812z"/>
	</g>
	<path style="fill:#FFD659;" d="M350.863,343.452l-122.679-39.612v-79.199l122.679-39.612c1.486-0.48,3.008,0.627,3.008,2.188   v154.046C353.871,342.825,352.349,343.932,350.863,343.452z"/>
	<path style="fill:#FF2C5C;" d="M173.067,296.177h-4.122c-17.638,0-31.936-14.298-31.936-31.936v0   c0-17.638,14.298-31.936,31.936-31.936h4.122V296.177z"/>
	<path style="fill:#50536E;" d="M201.041,369.32L201.041,369.32c-8.535,0-15.454-6.919-15.454-15.453v-89.625h30.907v89.625   C216.494,362.401,209.575,369.32,201.041,369.32z"/>
	<path style="fill:#50536E;" d="M443.5,82.414h-375V4c0-2.209,1.791-4,4-4h367c2.209,0,4,1.791,4,4V82.414z"/>
	<path style="fill:#484B63;" d="M443.5,82.414h-30.907V0H439.5c2.209,0,4,1.791,4,4V82.414z"/>
	<path style="fill:#FFBD54;" d="M350.863,185.031l-27.899,9.008v140.405l27.899,9.008c1.486,0.48,3.008-0.627,3.008-2.188V187.218   C353.871,185.658,352.349,184.551,350.863,185.031z"/>
	<g>
		<circle style="fill:#FF2C5C;" cx="115.89" cy="40.692" r="15.453"/>
		<circle style="fill:#FFD659;" cx="177.703" cy="40.692" r="15.453"/>
		<circle style="fill:#4FC6F5;" cx="239.516" cy="40.692" r="15.453"/>
	</g>
	<path style="fill:#4FC6F5;" d="M227.644,307.509h-53.207c-2.376,0-4.303-1.927-4.303-4.303v-77.929   c0-2.376,1.927-4.303,4.303-4.303h53.207c2.376,0,4.303,1.927,4.303,4.303v77.929C231.947,305.583,230.02,307.509,227.644,307.509z   "/>
	<path style="fill:#3BB3E3;" d="M227.644,220.974h-30.907c2.376,0,4.303,1.926,4.303,4.303v77.929c0,2.376-1.927,4.303-4.303,4.303   h30.907c2.376,0,4.303-1.927,4.303-4.303v-77.929C231.947,222.9,230.02,220.974,227.644,220.974z"/>
</g>















</svg>
