<svg id="_x33_0" enable-background="new 0 0 64 64" height="512" viewBox="0 0 64 64" width="512" xmlns="http://www.w3.org/2000/svg"><g><g><g><path d="m44 54-1 8h-36c-2.76 0-5-2.24-5-5v-48c0-2.76 2.24-5 5-5h37c-1.98.5-3.46 2.07-3.87 4h-.01-33.12c-.55 0-1 .45-1 1v40c0 .55.45 1 1 1h33.04c.84 1.71 2.22 3.13 3.96 4z" fill="#969faa"/></g><g><path d="m44 18c0 1.76 1.14 3.26 2.73 3.79v.01l-.73 2.2c-.99.12-1.94.4-2.8.83-3.1 1.47-5.2 4.63-5.2 8.23v.94h8v8.38c0 .89-.73 1.62-1.62 1.62-.8 0-1.48-.57-1.61-1.36l-.42-2.52c-.2-1.22-1.26-2.12-2.5-2.12-1.02 0-1.85.83-1.85 1.85 0 .1.01.2.03.3l1.23 7.44c.15.85.41 1.66.78 2.41h-33.04c-.55 0-1-.45-1-1v-40c0-.55.45-1 1-1h33.12.01c-.09.36-.13.74-.13 1.12v.23c0 .43.05.86.16 1.28l.59 2.38.01.01c-.47.53-.76 1.22-.76 1.98 0 .83.34 1.58.88 2.12s1.29.88 2.12.88z" fill="#69d6f4"/></g><g><path d="m30 55v2c0 .55-.45 1-1 1h-8c-.55 0-1-.45-1-1v-2c0-.55.45-1 1-1h8c.55 0 1 .45 1 1z" fill="#e6e9ed"/></g><g><path d="m22 46h-12c0-1.66.67-3.16 1.76-4.24 1.08-1.09 2.58-1.76 4.24-1.76s3.16.67 4.24 1.76c1.09 1.08 1.76 2.58 1.76 4.24z" fill="#e6e9ed"/></g><g><path d="m22 26h-12c0-1.66.67-3.16 1.76-4.24 1.08-1.09 2.58-1.76 4.24-1.76s3.16.67 4.24 1.76c1.09 1.08 1.76 2.58 1.76 4.24z" fill="#fcd770"/></g><g><path d="m59.79 10.85-.54 2.16-.01.01c-.54-.63-1.34-1.02-2.24-1.02h-1c0-1.1-.9-2-2-2h-8l-2-6c1.28-1.28 3.02-2 4.83-2h4.05c3.93 0 7.12 3.19 7.12 7.12 0 .59-.07 1.17-.21 1.73z" fill="#b27946"/></g><g><path d="m43 12c-.9 0-1.7.39-2.24 1.02l-.01-.01-.59-2.38c-.11-.42-.16-.85-.16-1.28v-.23c0-.38.04-.76.13-1.12.41-1.93 1.89-3.5 3.87-4l2 6c-1.1 0-2 .9-2 2z" fill="#b27946"/></g><g><path d="m45 29 2.2-.88.02.04c-.24.1-.45.24-.63.43-.37.36-.59.86-.59 1.41v4h-8v-.94c0-3.6 2.1-6.76 5.2-8.23z" fill="#fc6e51"/></g><g><path d="m50 27 5 2 1.8-4.17c1.12.52 2.1 1.28 2.91 2.19 1.43 1.62 2.29 3.74 2.29 6.04v.94h-10-2v-4c0-1.1-.9-2-2-2-.28 0-.54.06-.78.16l-.02-.04z" fill="#fc6e51"/></g><g><path d="m56.8 24.83-1.8 4.17-5-2 4-3z" fill="#fc6e51"/></g><g><path d="m50 27-2.8 1.12-2.2.88-1.8-4.17c.86-.43 1.81-.71 2.8-.83z" fill="#fc6e51"/></g><g><path d="m58 54 1 8h-16l1-8z" fill="#b4dd7f"/></g><g><circle cx="16" cy="16" fill="#f0d0b4" r="4"/></g><g><circle cx="16" cy="36" fill="#f0d0b4" r="4"/></g><g><path d="m58 40c0-.55.22-1.05.59-1.41.36-.37.86-.59 1.41-.59 1.1 0 2 .9 2 2v6c0 1.58-.37 3.1-1.06 4.47-.68 1.37-1.68 2.59-2.94 3.53h-14c-1.74-.87-3.12-2.29-3.96-4-.37-.75-.63-1.56-.78-2.41l-1.23-7.44c-.02-.1-.03-.2-.03-.3 0-1.02.83-1.85 1.85-1.85 1.24 0 2.3.9 2.5 2.12l.42 2.52c.13.79.81 1.36 1.61 1.36.89 0 1.62-.73 1.62-1.62v-8.38-4c0-.55.22-1.05.59-1.41.18-.19.39-.33.63-.43s.5-.16.78-.16c1.1 0 2 .9 2 2v4 2c0-.55.22-1.05.59-1.41.36-.37.86-.59 1.41-.59 1.1 0 2 .9 2 2v2c0-.55.22-1.05.59-1.41.36-.37.86-.59 1.41-.59 1.1 0 2 .9 2 2z" fill="#f0d0b4"/></g><g><path d="m57 12c.9 0 1.7.39 2.24 1.02.47.53.76 1.22.76 1.98 0 .83-.34 1.58-.88 2.12s-1.29.88-2.12.88h-1v-6z" fill="#f0d0b4"/></g><g><path d="m54 24-4 3-4-3 .73-2.2v-.01c.4.14.82.21 1.27.21h4c.45 0 .87-.07 1.27-.21v.01z" fill="#f0d0b4"/></g><g><path d="m56 12v6c0 1.76-1.14 3.26-2.73 3.79-.4.14-.82.21-1.27.21h-4c-.45 0-.87-.07-1.27-.21-1.59-.53-2.73-2.03-2.73-3.79v-6c0-1.1.9-2 2-2h8c1.1 0 2 .9 2 2z" fill="#f0d0b4"/></g><g><path d="m44 12v6h-1c-.83 0-1.58-.34-2.12-.88s-.88-1.29-.88-2.12c0-.76.29-1.45.76-1.98.54-.63 1.34-1.02 2.24-1.02z" fill="#f0d0b4"/></g></g><g><path d="m63 33.063c0-4.885-3.501-9.057-8.244-9.956l-.266-.797c1.215-.705 2.119-1.89 2.408-3.31h.102c2.206 0 4-1.794 4-4 0-.815-.248-1.572-.668-2.205l.425-1.701c.161-.643.243-1.306.243-1.971 0-4.479-3.644-8.123-8.123-8.123h-4.048c-1.946 0-3.781.711-5.218 2h-36.611c-3.309 0-6 2.691-6 6v48c0 3.309 2.691 6 6 6h53.133l-1.074-8.589c2.47-2.077 3.941-5.169 3.941-8.411v-6c0-1.654-1.346-3-3-3-.395 0-.77.081-1.116.22-.345-1.275-1.501-2.22-2.884-2.22-.395 0-.77.081-1.116.22-.02-.075-.043-.148-.069-.22h1.185 7zm-7.521-7.697-1.012 2.344-2.444-.978 2.233-1.674c.42.073.829.174 1.223.308zm-18.44 14.948 1.24 7.438c.071.425.176.84.3 1.247h-31.579v-39.999h32.01c-.001.042-.01.081-.01.123v.227c0 .514.063 1.027.188 1.523l.48 1.922c-.42.633-.668 1.39-.668 2.205 0 2.206 1.794 4 4 4h.101c.289 1.419 1.193 2.604 2.408 3.31l-.266.797c-4.742.899-8.243 5.071-8.243 9.956v1.937h8v7.376c0 .344-.28.624-.624.624-.307 0-.565-.22-.616-.521l-.42-2.521c-.286-1.714-1.755-2.958-3.493-2.958-1.57 0-2.847 1.277-2.847 2.847 0 .158.013.314.039.467zm4.089-29.926c-.085-.338-.128-.688-.128-1.038v-.227c0-1.653.947-3.111 2.379-3.823l1.334 4.001c-.711.341-1.262.95-1.529 1.698h-.184c-.582 0-1.131.131-1.63.355zm1.872 6.612c-1.103 0-2-.897-2-2s.897-2 2-2zm2.532 10.71-1.012-2.344c.394-.134.803-.235 1.223-.308l2.233 1.674zm-.532 5.29h-6c.022-2.808 1.484-5.314 3.718-6.764l1.75 4.054.532-.213zm7.823-9.367-2.823 2.117-2.823-2.117.231-.693c.196.024.389.06.592.06h4c.203 0 .396-.036.593-.06zm2.177-5.633c0 1.654-1.346 3-3 3h-4c-1.654 0-3-1.346-3-3v-6c0-.551.449-1 1-1h8c.551 0 1 .449 1 1zm2-1v-4c1.103 0 2 .897 2 2s-.897 2-2 2zm-4.123-14c3.376 0 6.123 2.747 6.123 6.123 0 .501-.062 1-.183 1.485l-.187.747c-.499-.224-1.048-.355-1.63-.355h-.184c-.414-1.161-1.514-2-2.816-2h-7.279l-1.565-4.696c1.035-.844 2.318-1.304 3.673-1.304zm-49.877 54v-48c0-2.206 1.794-4 4-4h33.566c-.513.587-.922 1.258-1.189 2h-32.377c-1.103 0-2 .897-2 2v40c0 1.103.897 2 2 2h32.439c.83 1.448 2.033 2.664 3.487 3.532l-.809 6.468h-35.117c-2.206 0-4-1.794-4-4zm41.133 4 .75-6h12.235l.75 6zm8.867-25v9h2v-7c0-.552.449-1 1-1s1 .448 1 1v7h2v-5c0-.552.449-1 1-1s1 .448 1 1v6c0 2.709-1.244 5.302-3.343 7h-13.413c-2.112-1.136-3.597-3.204-3.993-5.575l-1.24-7.438c-.007-.047-.011-.093-.011-.14 0-.467.38-.847.847-.847.756 0 1.396.542 1.521 1.287l.42 2.52c.211 1.271 1.3 2.193 2.588 2.193 1.447 0 2.624-1.177 2.624-2.624v-12.376c0-.551.449-1 1-1s1 .449 1 1v15h2v-9c0-.552.449-1 1-1s1 .448 1 1zm-2-3v-3c0-.656-.218-1.259-.577-1.753l5.109 2.043 1.75-4.054c2.234 1.45 3.696 3.956 3.718 6.764z"/><path d="m52 15.764c-.381.762-1.147 1.236-2 1.236h-3v2h3c1.615 0 3.067-.897 3.789-2.342l.105-.211-1.789-.895z"/><path d="m29 53h-8c-1.103 0-2 .897-2 2v2c0 1.103.897 2 2 2h8c1.103 0 2-.897 2-2v-2c0-1.103-.897-2-2-2zm-8 4v-2h8l.001 2z"/><path d="m19.221 19.792c1.079-.918 1.779-2.268 1.779-3.792 0-2.757-2.243-5-5-5s-5 2.243-5 5c0 1.524.7 2.874 1.779 3.792-2.242 1.168-3.779 3.51-3.779 6.208v1h14v-1c0-2.698-1.537-5.04-3.779-6.208zm-6.221-3.792c0-1.654 1.346-3 3-3s3 1.346 3 3-1.346 3-3 3-3-1.346-3-3zm-1.899 9c.464-2.279 2.485-4 4.899-4s4.435 1.721 4.899 4z"/><path d="m19.221 39.792c1.079-.918 1.779-2.268 1.779-3.792 0-2.757-2.243-5-5-5s-5 2.243-5 5c0 1.524.7 2.874 1.779 3.792-2.242 1.168-3.779 3.51-3.779 6.208v1h14v-1c0-2.698-1.537-5.04-3.779-6.208zm-6.221-3.792c0-1.654 1.346-3 3-3s3 1.346 3 3-1.346 3-3 3-3-1.346-3-3zm-1.899 9c.464-2.279 2.485-4 4.899-4s4.435 1.721 4.899 4z"/><path d="m25 25h6v2h-6z"/><path d="m25 21h10v2h-10z"/><path d="m25 17h4v2h-4z"/><path d="m31 17h4v2h-4z"/><path d="m25 45h6v2h-6z"/><path d="m25 41h10v2h-10z"/><path d="m25 37h4v2h-4z"/><path d="m31 37h4v2h-4z"/></g></g></svg>