<svg height="512" viewBox="0 0 36 58" width="512" xmlns="http://www.w3.org/2000/svg"><g id="Page-1" fill="none" fill-rule="evenodd"><g id="014---Ice-Cream" fill-rule="nonzero"><path id="Shape" d="m29 36c-.039.1-7.923 20.454-7.42 19.15-1.48 3.8-5.68 3.8-7.16 0l-7.42-19.15 11-3z" fill="#e57e25"/><g fill="#d25627"><path id="Shape" d="m26.51 42.43-.73 1.88-14.55-8.31h4.04z"/><path id="Shape" d="m24.61 47.34-.73 1.89-15.1-8.64-1.14-2.94z"/><path id="Shape" d="m22.7 52.25-.73 1.88-10.2-5.83-1.15-2.96z"/></g><path id="Rectangle-path" d="m7 27h22v9h-22z" fill="#f29c1f"/><path id="Shape" d="m13.01 16.655c-3.34-.102-5.01-3.274-5.01-6.655 0-5.5228475 4.4771525-10 10-10s10 4.4771525 10 10c0 3.381-1.67 6.553-5.01 6.655z" fill="#a65a47"/><path id="Shape" d="m36 22c-.0009475 2.6862275-1.0820444 5.259238-3 7.14-.5991984.5897911-1.2713084 1.1005947-2 1.52v7.34c0 1.1045695-.8954305 2-2 2s-2-.8954305-2-2v-6.05c-.33.03-.66.05-1 .05s-.67-.02-1-.05c-2.7860409-.2779855-5.3266039-1.7152183-7-3.96v-11.98c2.5814771-3.4419754 7.07518-4.8469379 11.1575381-3.4884199 4.082358 1.3585181 6.8381623 5.1759555 6.8424619 9.4784199z" fill="#f3d55b"/><path id="Shape" d="m32 24c-.5522847 0-1-.4477153-1-1v-1c0-.5522847.4477153-1 1-1s1 .4477153 1 1v1c0 .5522847-.4477153 1-1 1z" fill="#f0c419"/><path id="Shape" d="m13 8c-.3687074-.00031344-.7073293-.20349025-.88111-.52867561s-.1545228-.71961497.05011-1.02632439c1.2782668-2.01746648 3.4471421-3.29885478 5.831-3.445.3572656-.0010718.6879644.18853675.8675254.49740192.179561.30886518.1807046.69006303.003 1-.1777046.30993698-.5072598.50152628-.8645254.50259808-1.7168893.1442893-3.2645421 1.09164269-4.174 2.555-.1855246.27806972-.4977215.44505002-.832.445z" fill="#cc6f56"/><path id="Shape" d="m20 22c-.0108933 4.3637384-2.8406071 8.2202341-7 9.54-.6511706.2036228-1.3212346.340986-2 .41v3.05c-.0032948 1.1032019-.8967981 1.9967052-2 2-1.10320187.0032948-1.9967052.8967981-2 2 0 1.1045695-.8954305 2-2 2s-2-.8954305-2-2v-9.86l-.01-.01c-.8152858-.8040852-1.48817549-1.7407206-1.99-2.77-1.79384627-3.7038292-1.13542694-8.1284285 1.65913803-11.1494617 2.79456498-3.0210332 7.15456333-4.0215381 10.98667487-2.5211528 3.8321115 1.5003853 6.3537339 5.1952488 6.3541871 9.3106145z" fill="#ff5364"/><path id="Shape" d="m12 27c-.5522847 0-1-.4477153-1-1v-1c0-.5522847.4477153-1 1-1s1 .4477153 1 1v1c0 .5522847-.4477153 1-1 1z" fill="#df4d60"/><path id="Shape" d="m13 30v1.54c-.6511706.2036228-1.3212346.340986-2 .41v-1.95c0-.5522847.4477153-1 1-1s1 .4477153 1 1z" fill="#df4d60"/><path id="Shape" d="m33 27v2.14c-.5991984.5897911-1.2713084 1.1005947-2 1.52v-3.66c0-.5522847.4477153-1 1-1s1 .4477153 1 1z" fill="#f0c419"/><path id="Shape" d="m27 29v2.95c-.33.03-.66.05-1 .05s-.67-.02-1-.05v-2.95c0-.5522847.4477153-1 1-1s1 .4477153 1 1z" fill="#f0c419"/><path id="Shape" d="m3 25v4c.00165007.0435732-.00170521.0871918-.01.13-.8152858-.8040852-1.48817549-1.7407206-1.99-2.77v-1.36c0-.5522847.44771525-1 1-1s1 .4477153 1 1z" fill="#df4d60"/></g></g></svg>