<svg height="512pt" viewBox="0 0 512 512" width="512pt" xmlns="http://www.w3.org/2000/svg"><path d="m341.332031 48v157.652344c-10.238281 1.921875-20.265625 4.90625-29.652343 8.746094-63.785157 24.75-109.011719 86.613281-109.011719 158.933593 0 18.5625 2.984375 36.695313 8.746093 53.335938h-163.414062c-26.390625 0-48-21.613281-48-48v-330.667969c0-26.390625 21.609375-48 48-48h245.332031c26.519531 0 48 21.484375 48 48zm0 0" fill="#eceff1"/><path d="m128 138.667969c0 17.671875-14.328125 32-32 32s-32-14.328125-32-32c0-17.675781 14.328125-32 32-32s32 14.324219 32 32zm0 0" fill="#ffc107"/><path d="m202.667969 373.332031c0 18.5625 2.984375 36.695313 8.746093 53.335938h-163.414062c-26.453125 0-48-21.546875-48-48v-70.613281l48.214844-48.214844c14.503906-14.507813 38.398437-14.507813 52.90625 0l26.878906 26.878906 101.546875-101.546875c14.507813-14.503906 38.398437-14.503906 52.90625 0l29.226563 29.226563c-63.785157 24.75-109.011719 86.613281-109.011719 158.933593zm0 0" fill="#4caf50"/><path d="m512 373.332031c0 76.585938-62.082031 138.667969-138.667969 138.667969-76.582031 0-138.664062-62.082031-138.664062-138.667969 0-76.582031 62.082031-138.664062 138.664062-138.664062 76.585938 0 138.667969 62.082031 138.667969 138.664062zm0 0" fill="#4caf50"/><g fill="#fff"><path d="m373.332031 448c-8.832031 0-16-7.167969-16-16v-117.332031c0-8.832031 7.167969-16 16-16s16 7.167969 16 16v117.332031c0 8.832031-7.167969 16-16 16zm0 0"/><path d="m432 389.332031h-117.332031c-8.832031 0-16-7.167969-16-16s7.167969-16 16-16h117.332031c8.832031 0 16 7.167969 16 16s-7.167969 16-16 16zm0 0"/></g></svg>