<svg height="512pt" viewBox="0 -46 512 512" width="512pt" xmlns="http://www.w3.org/2000/svg"><path d="m140 195h-140v-110c0-8.285156 6.714844-15 15-15h110c8.285156 0 15 6.714844 15 15zm0 0" fill="#b47544"/><path d="m457.867188 276.902344-30.726563-184.367188-80.34375 4.558594 30.710937 184.273438c.71875 4.308593 3.277344 8.085937 7.007813 10.355468 3.730469 2.265625 8.261719 2.796875 12.417969 1.449219l46.136718 1.195313c3.496094 0 6.9375-1.222657 9.6875-3.546876 4.039063-3.414062 5.980469-8.703124 5.109376-13.917968zm0 0" fill="#be232d"/><path d="m327 70h-40c-8.285156 0-15-6.714844-15-15s6.714844-15 15-15h40c8.285156 0 15 6.714844 15 15s-6.714844 15-15 15zm0 0" fill="#444d55"/><path d="m427 0h-30v110h30c8.285156 0 15-6.714844 15-15v-80c0-8.285156-6.714844-15-15-15zm0 0" fill="#fac30f"/><path d="m412 110h-44.164062c-30.183594 0-55.367188-23.96875-55.828126-54.144531-.46875-30.71875 24.382813-55.855469 54.992188-55.855469h45zm0 0" fill="#dc1e28"/><path d="m467 340c8.285156 0 15 6.714844 15 15 0 35.839844-29.160156 65-65 65s-65-29.160156-65-65c0-8.285156 6.714844-15 15-15zm0 0" fill="#444d55"/><path d="m417 390c-13.933594 0-25.992188-8.183594-31.621094-20h63.242188c-5.628906 11.816406-17.6875 20-31.621094 20zm0 0" fill="#c8dce6"/><path d="m195 340c8.285156 0 15 6.714844 15 15 0 35.839844-29.160156 65-65 65s-65-29.160156-65-65c0-8.285156 6.714844-15 15-15zm0 0" fill="#545c64"/><path d="m145 390c-13.933594 0-25.992188-8.183594-31.621094-20h63.242188c-5.628906 11.816406-17.6875 20-31.621094 20zm0 0" fill="#e6f0f5"/><path d="m417 260c-47.277344 0-86.597656 34.71875-93.8125 80h-33.1875v-105c0-30.328125-24.671875-55-55-55h-60c-74.4375 0-135 60.5625-135 135v40c0 8.285156 6.714844 15 15 15h442c8.285156 0 15-6.714844 15-15 0-52.382812-42.617188-95-95-95zm0 0" fill="#ff3746"/><path d="m417 260c-47.277344 0-86.597656 34.71875-93.8125 80h-33.1875v-105c0-22.894531-14.0625-42.554688-34-50.824219v185.824219h241c8.285156 0 15-6.714844 15-15 0-52.382812-42.617188-95-95-95zm0 0" fill="#dc1e28"/><path d="m140 210h-125c-8.285156 0-15-6.714844-15-15s6.714844-15 15-15h125zm0 0" fill="#b0b5c0"/><path d="m255 210h-130c-8.285156 0-15-6.714844-15-15v-20c0-30.328125 24.671875-55 55-55h90c24.8125 0 45 20.1875 45 45s-20.1875 45-45 45zm0 0" fill="#545c64"/><path d="m300 165c0-24.476562-19.648438-44.4375-44-44.976562v89.949218c24.351562-.535156 44-20.496094 44-44.972656zm0 0" fill="#444d55"/></svg>