<svg id="Flat" height="512" viewBox="0 0 512 512" width="512" xmlns="http://www.w3.org/2000/svg"><path d="m304 264c-24-32-16-48-16-48 4.093-7.547-.573-15.581 2.022-24a135.658 135.658 0 0 0 5.978-40c0-70.692-53.726-128-120-128s-120 57.308-120 128c0 23.315-2.211 45.172 8 64s8 16-16 48-24 48-24 48h304s0-16-24-48z" fill="#95573a"/><path d="m56 280h240a32 32 0 0 1 32 32v176a0 0 0 0 1 0 0h-304a0 0 0 0 1 0 0v-176a32 32 0 0 1 32-32z" fill="#e9eef2"/><path d="m176 280h-104v208h104 104v-208z" fill="#596063"/><path d="m168 392h16v96h-16z" fill="#4f5659"/><circle cx="280" cy="184" fill="#f0c6a4" r="32"/><circle cx="72" cy="184" fill="#f0c6a4" r="32"/><path d="m112 280 64 128 64-128z" fill="#e9eef2"/><ellipse cx="88" cy="408" fill="#eb423f" rx="32" ry="16"/><path d="m248 424h240v32h-240z" fill="#95573a"/><path d="m367.889 328a95.945 95.945 0 0 0 -95.889 96h191.778a95.945 95.945 0 0 0 -95.889-96z" fill="#f7b030"/><path d="m400 416h32a0 0 0 0 1 0 0v64a0 0 0 0 1 0 0h-32a16 16 0 0 1 -16-16v-32a16 16 0 0 1 16-16z" fill="#f7cca9" transform="matrix(0 -1 1 0 -40 856)"/><circle cx="368" cy="312" fill="#95573a" r="16"/><path d="m152 280h48v32h-48z" fill="#596063"/><path d="m240 320-48-8.816v-31.347l48-7.837z" fill="#757c80"/><path d="m112 320 48-8.816v-31.347l-48-7.837z" fill="#757c80"/><path d="m72 152s24-32 72-24 64-40 64-40 0 32 32 40 40 32 40 32v16a104 104 0 0 1 -104 104 104 104 0 0 1 -104-104z" fill="#f7cca9"/><g fill="#452d23"><circle cx="216" cy="168" r="8"/><circle cx="136" cy="168" r="8"/><path d="m184 192h-16a8 8 0 0 1 -8-8v-16a8 8 0 0 1 16 0v8h8a8 8 0 0 1 0 16z"/></g><path d="m136 208s10 32 40 32 40-32 40-32z" fill="#eb423f"/></svg>