<?xml version="1.0" encoding="iso-8859-1"?>
<!-- Generator: Adobe Illustrator 19.0.0, SVG Export Plug-In . SVG Version: 6.00 Build 0)  -->
<svg version="1.1" id="Capa_1" xmlns="http://www.w3.org/2000/svg" xmlns:xlink="http://www.w3.org/1999/xlink" x="0px" y="0px"
	 viewBox="0 0 512 512" style="enable-background:new 0 0 512 512;" xml:space="preserve">
<path style="fill:#293C7D;" d="M508.552,128.922c-3.406-4.726-8.866-7.536-14.688-7.557H125.496l-19.903-78.867
	c-2.097-8.281-9.664-13.985-18.2-13.73H18.211C8.163,28.757,0.011,36.899,0,46.957c-0.011,10.047,8.142,18.2,18.19,18.211
	c0.011,0,0.011,0,0.021,0h55.558l84.402,334.628c2.044,8.046,9.26,13.698,17.562,13.73h227.236c10.047,0,18.2-8.153,18.2-18.2
	s-8.153-18.2-18.2-18.2l0,0H190.101l-8.408-33.314h251.61c7.855-0.032,14.805-5.088,17.242-12.559l60.561-186.046
	C512.905,139.683,511.957,133.626,508.552,128.922z M420.105,307.518H172.54l-37.89-149.752h334.202L420.105,307.518z"/>
<circle style="fill:#FFFFFF;" cx="173.498" cy="427.863" r="37.145"/>
<path style="fill:#4899D2;" d="M173.498,483.24c-30.504,0-55.239-24.735-55.239-55.239c0-30.504,24.735-55.239,55.239-55.239
	s55.239,24.735,55.239,55.239l0,0C228.673,458.484,203.98,483.176,173.498,483.24z M173.498,408.737
	c-10.462,0-18.945,8.483-18.945,18.945c0,10.462,8.483,18.945,18.945,18.945s18.945-8.483,18.945-18.945l0,0
	c-0.17-10.335-8.611-18.626-18.945-18.626V408.737z"/>
<circle style="fill:#FFFFFF;" cx="402.969" cy="427.863" r="37.145"/>
<path style="fill:#4899D2;" d="M402.969,483.24c-30.504-0.064-55.197-24.842-55.133-55.346
	c0.064-30.504,24.842-55.197,55.346-55.133c30.461,0.064,55.133,24.778,55.133,55.239
	C458.251,458.526,433.494,483.24,402.969,483.24z M402.969,408.737c-10.462,0-18.945,8.483-18.945,18.945
	c0,10.462,8.483,18.945,18.945,18.945c10.462,0,18.945-8.483,18.945-18.945l0,0c-0.17-10.335-8.61-18.626-18.945-18.626V408.737z"/>
<g>
</g>
<g>
</g>
<g>
</g>
<g>
</g>
<g>
</g>
<g>
</g>
<g>
</g>
<g>
</g>
<g>
</g>
<g>
</g>
<g>
</g>
<g>
</g>
<g>
</g>
<g>
</g>
<g>
</g>
</svg>
