<?xml version="1.0" encoding="iso-8859-1"?>
<!-- Generator: Adobe Illustrator 19.0.0, SVG Export Plug-In . SVG Version: 6.00 Build 0)  -->
<svg version="1.1" id="Layer_1" xmlns="http://www.w3.org/2000/svg" xmlns:xlink="http://www.w3.org/1999/xlink" x="0px" y="0px"
	 viewBox="0 0 512 512" style="enable-background:new 0 0 512 512;" xml:space="preserve">
<g>
	<path style="fill:#3FBAD9;" d="M186.31,208.631l-37.539-18.764c-2.511-1.255-5.482-1.172-7.918,0.221
		c-2.436,1.392-4.016,3.911-4.209,6.711l-3.747,54.428c-0.5,7.271,8.32,11.714,13.861,6.929l41.286-35.665
		c2.124-1.834,3.191-4.609,2.842-7.394S188.82,209.885,186.31,208.631z"/>
	<path style="fill:#3FBAD9;" d="M316.602,196.669c-0.193-2.799-1.772-5.317-4.209-6.711c-2.436-1.393-5.407-1.475-7.918-0.221
		L266.936,208.5c-2.511,1.255-4.227,3.682-4.575,6.466c-0.348,2.785,0.719,5.56,2.842,7.394l41.286,35.665
		c5.54,4.785,14.361,0.343,13.861-6.929L316.602,196.669z"/>
</g>
<path style="fill:#8EB845;" d="M256.688,213.574c-1.556-2.335-4.177-3.738-6.983-3.738h-41.967c-2.807,0-5.427,1.403-6.983,3.738
	c-1.556,2.335-1.843,5.293-0.765,7.885l20.984,50.361c2.81,6.741,12.687,6.741,15.496,0l20.984-50.361
	C258.532,218.866,258.245,215.909,256.688,213.574z"/>
<path style="fill:#E2D9D0;" d="M228.721,226.623c-50.676,0-93.416-22.832-116.517-44.199c-3.402-3.148-3.609-8.458-0.462-11.862
	c3.149-3.401,8.458-3.61,11.862-0.462c19.816,18.33,59.237,39.736,105.116,39.736c36.441,0,84.529-20.859,103.18-39.509
	c3.279-3.277,8.592-3.277,11.87,0c3.278,3.279,3.278,8.592,0,11.87C320.106,205.864,266.343,226.623,228.721,226.623z"/>
<g>
	<path style="fill:#6E4013;" d="M375.607,297.967c-4.635,0-8.393-3.758-8.393-8.393V146.885c0-4.635,3.758-8.393,8.393-8.393
		c4.635,0,8.393,3.758,8.393,8.393v142.689C384,294.209,380.242,297.967,375.607,297.967z"/>
	<path style="fill:#6E4013;" d="M81.836,297.967c-4.635,0-8.393-3.758-8.393-8.393V146.885c0-4.635,3.758-8.393,8.393-8.393
		s8.393,3.758,8.393,8.393v142.689C90.229,294.209,86.471,297.967,81.836,297.967z"/>
</g>
<path style="fill:#FCD110;" d="M413.377,306.361H44.066c-4.635,0-8.393,3.758-8.393,8.393v113.311c0,4.635,3.758,8.393,8.393,8.393
	h369.311c4.635,0,8.393-3.758,8.393-8.393V314.754C421.77,310.119,418.012,306.361,413.377,306.361z"/>
<path style="fill:#FAB41E;" d="M421.77,314.754c0-4.635-3.758-8.393-8.393-8.393H44.066c-4.635,0-8.393,3.758-8.393,8.393v25.18
	H421.77V314.754z"/>
<path style="fill:#6E4013;" d="M308.459,344.131c-46.281,0-83.934,37.653-83.934,83.934S262.178,512,308.459,512
	s83.934-37.653,83.934-83.934S354.74,344.131,308.459,344.131z M375.063,419.672h-46.34l32.747-32.747
	C368.693,396.211,373.529,407.432,375.063,419.672z M316.852,361.461c12.24,1.534,23.461,6.37,32.747,13.593l-32.747,32.747V361.461
	z M300.066,407.802l-32.747-32.747c9.286-7.224,20.507-12.058,32.747-13.593V407.802z M300.066,494.67
	c-12.24-1.534-23.461-6.37-32.747-13.593l32.747-32.747V494.67z M316.852,448.329l32.747,32.747
	c-9.286,7.224-20.507,12.058-32.747,13.593V448.329z M255.447,386.925l32.748,32.747h-46.34
	C243.389,407.432,248.225,396.211,255.447,386.925z M241.855,436.459h46.34l-32.747,32.747
	C248.225,459.92,243.389,448.699,241.855,436.459z M361.471,469.206l-32.748-32.747h46.34
	C373.529,448.699,368.693,459.92,361.471,469.206z"/>
<circle style="fill:#E3451E;" cx="308.459" cy="428.066" r="25.18"/>
<circle style="fill:#6E4013;" cx="111.213" cy="461.639" r="50.361"/>
<circle style="fill:#E3451E;" cx="111.213" cy="461.639" r="20.984"/>
<path style="fill:#6E4013;" d="M438.55,302.165c-1.38,0-2.777-0.34-4.069-1.058c-4.052-2.252-5.512-7.361-3.261-11.413l20.984-37.77
	c1.48-2.665,4.289-4.317,7.337-4.317h29.377c4.635,0,8.393,3.758,8.393,8.393c0,4.635-3.758,8.393-8.393,8.393h-24.439
	l-18.585,33.453C444.36,300.608,441.499,302.165,438.55,302.165z"/>
<path style="fill:#E3451E;" d="M438.557,285.377H23.082c-4.635,0-8.393,3.758-8.393,8.393v20.984c0,4.635,3.758,8.393,8.393,8.393
	h415.475c4.635,0,8.393-3.758,8.393-8.393V293.77C446.951,289.135,443.193,285.377,438.557,285.377z"/>
<path style="fill:#FFE987;" d="M375.607,125.902h-58.754h-58.754h-58.754H140.59H81.836H23.082v20.984
	c0,16.225,13.153,29.377,29.377,29.377s29.377-13.153,29.377-29.377c0,16.225,13.153,29.377,29.377,29.377
	s29.377-13.153,29.377-29.377c0,16.225,13.153,29.377,29.377,29.377s29.377-13.153,29.377-29.377
	c0,16.225,13.153,29.377,29.377,29.377s29.377-13.153,29.377-29.377c0,16.225,13.153,29.377,29.377,29.377
	s29.377-13.153,29.377-29.377c0,16.225,13.153,29.377,29.377,29.377c16.225,0,29.377-13.153,29.377-29.377
	c0,16.225,13.153,29.377,29.377,29.377c16.224,0,29.377-13.153,29.377-29.377v-20.984H375.607z"/>
<path style="fill:#FCD110;" d="M199.344,125.902v20.984c0,16.225,13.153,29.377,29.377,29.377s29.377-13.153,29.377-29.377v-20.984
	H199.344z"/>
<path style="fill:#E3451E;" d="M258.098,125.902v20.984c0,16.225,13.153,29.377,29.377,29.377s29.377-13.153,29.377-29.377v-20.984
	H258.098z"/>
<path style="fill:#FCD110;" d="M316.852,125.902v20.984c0,16.225,13.153,29.377,29.377,29.377c16.225,0,29.377-13.153,29.377-29.377
	v-20.984H316.852z"/>
<g>
	<path style="fill:#E3451E;" d="M375.607,125.902v20.984c0,16.225,13.153,29.377,29.377,29.377
		c16.224,0,29.377-13.153,29.377-29.377v-20.984H375.607z"/>
	<path style="fill:#E3451E;" d="M23.082,125.902v20.984c0,16.225,13.153,29.377,29.377,29.377s29.377-13.153,29.377-29.377v-20.984
		H23.082z"/>
</g>
<path style="fill:#FCD110;" d="M81.836,125.902v20.984c0,16.225,13.153,29.377,29.377,29.377s29.377-13.153,29.377-29.377v-20.984
	H81.836z"/>
<path style="fill:#E3451E;" d="M140.59,125.902v20.984c0,16.225,13.153,29.377,29.377,29.377s29.377-13.153,29.377-29.377v-20.984
	H140.59z"/>
<g>
	<polygon style="fill:#FFE987;" points="77.639,46.164 379.803,46.164 434.361,125.902 23.082,125.902 	"/>
	<rect x="199.344" y="46.164" style="fill:#FFE987;" width="58.754" height="79.738"/>
</g>
<g>
	<polygon style="fill:#FF9736;" points="258.098,46.164 300.066,46.164 316.852,125.902 258.098,125.902 	"/>
	<polygon style="fill:#FF9736;" points="346.229,46.164 379.803,46.164 434.361,125.902 375.607,125.902 	"/>
	<polygon style="fill:#FF9736;" points="199.344,46.164 157.377,46.164 140.59,125.902 199.344,125.902 	"/>
	<polygon style="fill:#FF9736;" points="111.213,46.164 77.639,46.164 23.082,125.902 81.836,125.902 	"/>
</g>
<path style="fill:#E3451E;" d="M86.033,0H371.41c4.635,0,8.393,3.758,8.393,8.393v37.77H77.639V8.393
	C77.639,3.758,81.397,0,86.033,0z"/>
<g>
</g>
<g>
</g>
<g>
</g>
<g>
</g>
<g>
</g>
<g>
</g>
<g>
</g>
<g>
</g>
<g>
</g>
<g>
</g>
<g>
</g>
<g>
</g>
<g>
</g>
<g>
</g>
<g>
</g>
</svg>
