<?xml version="1.0" encoding="iso-8859-1"?>
<!-- Generator: Adobe Illustrator 19.0.0, SVG Export Plug-In . SVG Version: 6.00 Build 0)  -->
<svg version="1.1" id="Capa_1" xmlns="http://www.w3.org/2000/svg" xmlns:xlink="http://www.w3.org/1999/xlink" x="0px" y="0px"
	 viewBox="0 0 491.52 491.52" style="enable-background:new 0 0 491.52 491.52;" xml:space="preserve">
<circle style="fill:#E05B49;" cx="245.76" cy="245.76" r="245.76"/>
<path style="fill:#E1E6E9;" d="M386.559,347.992l-2.628-0.053l-20.633-61.628c-0.617-1.845-4.397-3.326-8.45-3.326H136.674
	c-4.052,0-7.835,1.481-8.453,3.326l-20.54,61.351l-2.722-0.055v8.659h0.012c0.043,2.24,3.103,3.95,7.478,3.95h266.625
	c4.372,0,7.432-1.71,7.475-3.95h0.01V347.992z"/>
<path style="fill:#64798A;" d="M354.849,131.303H136.674c-4.053,0-7.34,3.286-7.34,7.34v126.1c0,4.054,3.287,7.339,7.34,7.339
	h218.174c4.053,0,7.337-3.285,7.337-7.339v-126.1C362.186,134.589,358.902,131.303,354.849,131.303z"/>
<path style="fill:#EBF0F3;" d="M354.849,274.451H136.674c-4.053,0-7.835,1.481-8.453,3.326l-23.114,69.041
	c-0.894,2.673,2.388,4.864,7.341,4.864h266.626c4.953,0,8.234-2.191,7.339-4.864L363.3,277.777
	C362.682,275.933,358.902,274.451,354.849,274.451z"/>
<g>
	<path style="fill:#E1E6E9;" d="M350.221,280.623H141.302c-0.158,0-0.303,0.058-0.324,0.13l-9.89,33.421
		c-0.026,0.086,0.093,0.156,0.266,0.156h228.815c0.173,0,0.292-0.07,0.266-0.156l-9.89-33.421
		C350.523,280.681,350.378,280.623,350.221,280.623z"/>
	<path style="fill:#E1E6E9;" d="M285.851,318.573h-80.179c-2.83,0-5.259,1.164-5.426,2.61l-2.225,19.289
		c-0.185,1.602,2.104,2.91,5.113,2.91h85.255c3.009,0,5.298-1.308,5.113-2.91l-2.226-19.289
		C291.11,319.737,288.681,318.573,285.851,318.573z"/>
</g>
<path style="fill:#3A556A;" d="M338.502,268.073H153.019c-0.33,0-0.6,0.218-0.6,0.486v9.437c0,0.268,0.27,0.486,0.6,0.486h185.483
	c0.33,0,0.6-0.218,0.6-0.486v-9.437C339.102,268.291,338.832,268.073,338.502,268.073z"/>
<circle style="fill:#2F4859;" cx="245.76" cy="137.928" r="3.031"/>
<circle style="fill:#3A556A;" cx="245.76" cy="137.928" r="1.393"/>
<rect x="142.843" y="144.794" style="fill:#EBF0F3;" width="205.824" height="113.766"/>
<rect x="142.843" y="144.794" style="fill:#3A556A;" width="205.824" height="12.928"/>
<circle style="fill:#FCD462;" cx="316.175" cy="151.276" r="3.615"/>
<circle style="fill:#44C4A1;" cx="327.634" cy="151.276" r="3.615"/>
<circle style="fill:#E56353;" cx="339.098" cy="151.276" r="3.615"/>
<rect x="142.843" y="254.07" style="fill:#E1E6E9;" width="205.824" height="4.506"/>
<g>
	<rect x="160" y="171.587" style="fill:#E56353;" width="171.54" height="5.54"/>
	<rect x="160" y="236.851" style="fill:#E56353;" width="171.54" height="5.54"/>
</g>
<g>
	<path style="fill:#64798A;" d="M180.974,185.305c2.905,0,5.73,0.55,8.475,1.66c2.745,1.105,5.165,2.64,7.25,4.605l-2.945,3.75
		c-3.525-3.605-7.765-5.41-12.72-5.41c-4.875,0-9.01,1.65-12.41,4.95c-3.4,3.295-5.1,7.3-5.1,12.01c0,4.71,1.71,8.715,5.13,12.01
		c3.42,3.3,7.545,4.945,12.38,4.945c4.83,0,9.07-1.72,12.72-5.16l3.01,3.38c-4.71,4.425-10.04,6.635-15.975,6.635
		c-6.185,0-11.44-2.11-15.76-6.33c-4.32-4.215-6.48-9.375-6.48-15.48c0-6.02,2.18-11.12,6.54-15.3
		C169.454,187.395,174.744,185.305,180.974,185.305z"/>
	<path style="fill:#64798A;" d="M223.059,185.305c6.27,0,11.585,2.09,15.945,6.265c4.36,4.18,6.545,9.3,6.545,15.36
		c0,6.065-2.185,11.205-6.545,15.42c-4.36,4.22-9.675,6.33-15.945,6.33c-6.305,0-11.64-2.11-16.005-6.33
		c-4.36-4.215-6.54-9.355-6.54-15.42c0-6.06,2.18-11.18,6.54-15.36C211.419,187.395,216.754,185.305,223.059,185.305z
		 M223.059,189.975c-4.835,0-8.97,1.65-12.41,4.945c-3.44,3.295-5.16,7.3-5.16,12.01c0,4.71,1.72,8.725,5.16,12.045
		c3.44,3.315,7.575,4.975,12.41,4.975c4.795,0,8.9-1.66,12.32-4.975c3.42-3.32,5.13-7.335,5.13-12.045c0-4.71-1.71-8.715-5.13-12.01
		C231.959,191.624,227.854,189.975,223.059,189.975z"/>
	<path style="fill:#64798A;" d="M254.519,185.424h17.385c6.265,0,11.52,2.06,15.76,6.175c4.24,4.12,6.36,9.23,6.36,15.33
		c0,6.105-2.13,11.215-6.39,15.33c-4.26,4.115-9.565,6.175-15.915,6.175h-17.2V185.424z M259.434,190.159v33.605h12.53
		c4.835,0,8.89-1.595,12.165-4.79c3.28-3.195,4.915-7.19,4.915-11.985c0-4.79-1.67-8.795-5.005-12.01
		c-3.34-3.215-7.425-4.82-12.26-4.82H259.434z"/>
	<path style="fill:#64798A;" d="M332.174,190.159h-24.265v14.13h21.685v4.73h-21.685v14.745h25.065v4.67h-29.98v-43.01h29.18
		V190.159z"/>
</g>
<g>
</g>
<g>
</g>
<g>
</g>
<g>
</g>
<g>
</g>
<g>
</g>
<g>
</g>
<g>
</g>
<g>
</g>
<g>
</g>
<g>
</g>
<g>
</g>
<g>
</g>
<g>
</g>
<g>
</g>
</svg>
