<svg id="Capa_1" enable-background="new 0 0 512 512" height="512" viewBox="0 0 512 512" width="512" xmlns="http://www.w3.org/2000/svg"><g><g><g><g><g><g><g><ellipse cx="256" cy="256" fill="#ffe000" rx="256" ry="256" transform="matrix(.707 -.707 .707 .707 -106.039 256)"/></g></g></g></g></g></g><path d="m259.195 511.981c138.859-1.698 251.103-113.953 252.785-252.816l-130.58-130.58-11.724 22.937-96.176-96.178-123.404 97.897-94.752 120.259 93.443 93.443-17.188 17.441z" fill="#ffb600"/><g><g><g><path d="m320.798 275.196c-.061-15.299-12.482-27.66-27.768-27.66-.037 0-.076 0-.112 0-6.037.021-16.886-.704-21.425-5.853-3.922-4.451-3.92-12.725-3.595-15.509.479-2.937 3.944-28.671-21.011-32.808-29.448-4.883-33.831 24.005-33.831 24.005-.078.469-.225 1.435-.372 2.814l-6.207.089c-9.021.129-16.23 7.546-16.101 16.567.128 8.942 7.416 16.102 16.329 16.102.079 0 .159 0 .238-.002l8.787-.126c1.638 5.404 3.994 10.998 7.344 16.453l-8.235 7.062c-6.849 5.873-7.641 16.186-1.768 23.035 3.231 3.768 7.806 5.702 12.408 5.702 3.763 0 7.546-1.293 10.626-3.935l10.537-9.035c7.083 4.065 14.587 6.724 21.953 8.405l-.771 10.625c-.653 8.999 6.112 16.823 15.11 17.476.403.029.802.043 1.2.043 8.484 0 15.652-6.558 16.276-15.154l.846-11.655c11.36-3.518 19.592-14.129 19.542-26.641z" fill="#10b8e0"/></g><g><path d="m293.03 247.536c-.037 0-.076 0-.112 0-6.037.021-16.886-.704-21.425-5.853-3.922-4.451-3.92-12.725-3.595-15.509.411-2.52 3.002-21.81-12.025-29.854v100.223c4.216 1.692 8.491 2.994 12.722 3.959l-.771 10.625c-.653 8.999 6.112 16.823 15.11 17.476.403.029.802.043 1.2.043 8.484 0 15.652-6.558 16.276-15.153l.846-11.656c11.361-3.519 19.593-14.13 19.543-26.642-.062-15.298-12.483-27.659-27.769-27.659z" fill="#00a2db"/></g><g><g><circle cx="334.858" cy="193.365" fill="#00a2db" r="12.62"/></g></g><g><g><circle cx="161.252" cy="264.763" fill="#10b8e0" r="8.73"/></g></g><g><g><circle cx="328.834" cy="329.178" fill="#00a2db" r="18.644"/></g></g><g><g><circle cx="211.229" cy="338.056" fill="#10b8e0" r="18.644"/></g></g><g><g><circle cx="239.993" cy="159.543" fill="#10b8e0" r="16.242"/></g></g></g></g><g><path d="m434.865 256c0-92.722-70.92-169.191-161.365-178.013v-22.643h-35v22.643c-84.685 8.261-152.252 75.828-160.513 160.513h-22.643v35h22.642c8.261 84.685 75.828 152.253 160.513 160.514v22.642h35v-22.642c90.445-8.822 161.365-85.291 161.366-178.014zm-161.365 142.805v-20.733h-35v20.733c-65.366-7.962-117.342-59.938-125.304-125.305h20.733v-35h-20.733c7.962-65.366 59.938-117.342 125.304-125.304v20.732h35v-20.732c71.104 8.66 126.365 69.4 126.365 142.805-.001 73.403-55.261 134.143-126.365 142.804z" fill="#636978"/><path d="m456.656 238.5h-22.642c-8.26-84.685-75.828-152.253-160.514-160.513v-22.643h-17.627v78.583h17.627v-20.732c65.367 7.962 117.344 59.938 125.306 125.305h-20.733v35h20.733c-7.962 65.367-59.939 117.343-125.306 125.305v-20.733h-17.627v78.583h17.627v-22.642c84.685-8.261 152.253-75.828 160.515-160.514h22.642v-34.999z" fill="#414952"/></g></g></svg>