<svg height="512pt" viewBox="-61 0 512 512.00016" width="512pt" xmlns="http://www.w3.org/2000/svg"><g fill="#fff"><path d="m236.734375 31.375c.664063-3.796875-.855469-8.097656-4.09375-11.519531-2.757813-2.882813-6.210937-4.828125-10.550781-6.859375-11.457032-5.378906-21.519532-7.992188-30.757813-7.992188-2.386719 0-4.753906.183594-7.027343.539063-2.695313.421875-5.429688 1.121093-8.144532 2.085937-2.648437.957032-5.28125 2.179688-7.820312 3.628906-3.511719 2.003907-6.859375 4.457032-9.945313 7.292969-6.683593 6.144531-12.371093 14.167969-16.902343 23.847657-.5 1.066406-.84375 2.097656-1.015626 3.0625l-.441406 2.402343 1.652344 1.820313c-5.199219-1.71875-10.460938-2.589844-15.640625-2.589844-7.085937 0-13.621094 1.667969-18.894531 4.828125-9.777344 5.84375-16.542969 19.652344-11.019532 30.894531 2.867188 5.808594 8.648438 10.460938 17.183594 13.828125 7.480469 2.945313 15.476563 4.433594 23.765625 4.433594 14.824219 0 29.234375-4.828125 40.574219-13.605469 8.109375 10.8125 21.546875 17.5625 35.09375 17.621094h.148438c13.445312 0 26.871093-6.640625 35.042968-17.335938 4.847656 4.851563 11.980469 7.636719 19.574219 7.636719 5.691406 0 11.074219-1.535156 15.570313-4.441406 10.464843-6.773437 16.085937-20.457031 13.667968-33.277344-2.292968-12.121093-11.601562-23.042969-23.714844-27.832031-4.542968-1.796875-9.289062-2.667969-14.507812-2.667969-6.488281 0-13.617188 1.371094-21.796875 4.199219zm0 0"/><path d="m271.4375 355.246094c4.46875 2.039062 9.539062 4.347656 14.5 6.433594.605469.253906 3.070312 1.265624 3.070312 1.265624 8.28125 3.382813 18.5625 7.585938 22.769532 15.929688l.609375 1.929688 1.980469.90625-30.976563 63.269531 5.375 1.832031c.285156.097656.574219.21875.859375.359375l2.417969 1.210937 9.917969-5.796874 1.042968-.601563.644532-.992187.679687-.535157s.558594-.894531.609375-.972656c.128906-.167969.257812-.339844.390625-.507813l8.621094 2.730469c11.261719 3.566407 21.542969 10.460938 28.949219 19.417969 8.359374 10.113281 13.085937 22.539062 13.667968 35.929688l.257813 5.953124 5.816406-1.285156c9.074219-2.007812 17.105469-9.335937 20.464844-18.667968 3.589843-9.964844 2.457031-22.367188-3.113281-34.03125-5.09375-10.667969-13.058594-19.734376-20.761719-28.085938-.851563-.9375-1.714844-1.859375-2.5625-2.769531l-.074219-.078125c-6.984375-7.539063-14.203125-15.335938-19.667969-24.199219-6.097656-9.878906-9.996093-21.058594-13.765625-31.867187l-.1875-.535157c-1.191406-3.417969-2.421875-6.953125-3.714844-10.375-4.730468-12.628906-11.871093-28.375-25.191406-38.136719-6.503906-4.78125-13.824218-7.714843-21.589844-10.828124l-3.402343-1.371094c-7.972657-3.257813-17.035157-7.316406-23.632813-14.261719-.195312-.210937-.382812-.421875-.566406-.640625l-6.84375-8.265625-1.925781 10.558594c-1.15625 6.371093-4.105469 12.644531-6.988281 18.769531l-1.082032 2.304688c-3.726562 7.988281-7.070312 16.589843-6.3125 25.363281l.332032 3.804687 3.753906.683594c4.53125.828125 8.945312 1.878906 13.125 3.132812 11.144531 3.328126 21.933594 8.222657 32.367187 12.960938zm53.394531 74.292968c4.878907 0 9.664063 1.433594 13.707031 4.0625-4.035156-2.625-8.832031-4.054687-13.742187-4.0625zm-11.75 3-1.046875.566407c1.179688-.707031 2.425782-1.308594 3.710938-1.816407-.902344.363282-1.789063.777344-2.664063 1.25zm2.722657-1.269531c.421874-.167969.847656-.328125 1.277343-.46875-.429687.144531-.855469.300781-1.277343.46875zm0 0"/><path d="m27.574219 501.722656 5.816406 1.285156.257813-5.953124c.578124-13.390626 5.308593-25.816407 13.671874-35.929688 7.402344-8.957031 17.679688-15.855469 28.945313-19.417969l8.617187-2.726562c.152344.191406.304688.390625.453126.589843l.539062 2.023438 1.820312 1.035156c.648438.367188 1.3125.75 1.992188 1.140625l.257812.148438c2.988282 1.726562 5.382813 3.105469 6.671876 3.796875l2.242187 3.667968 3.960937-1.664062c.59375-.246094 1.199219-.457031 1.8125-.621094l6.039063-1.621094-31.914063-60.722656 2-.683594.875-1.960937c22.9375-22.09375 53.316407-37.671875 85.539063-43.871094 10.140625-1.957031 20.140625-3.070312 29.71875-3.304687l4.429687-.105469.421876-4.414063c1.246093-12.953124 6.804687-25.292968 10.007812-31.496093l4.878906-9.445313-10.390625 2.269532c-5.085937 1.109374-10.253906 1.675781-15.363281 1.675781-1.414062 0-2.796875-.042969-4.109375-.125-11.902344-.710938-24.054687-4.691407-34.222656-11.207031l-3.785157-2.425782-2.816406 3.507813c-.40625.507812-.757812.914062-1.132812 1.304687-6.636719 6.988282-15.699219 11.046875-23.65625 14.296875l-3.433594 1.382813c-7.75 3.109375-15.070312 6.042968-21.570312 10.820312-13.324219 9.765625-20.464844 25.511719-25.191407 38.128906-1.296875 3.433594-2.527343 6.96875-3.71875 10.386719l-.183593.53125c-3.773438 10.8125-7.667969 21.992188-13.765626 31.871094-5.464843 8.863281-12.6875 16.660156-19.671874 24.199219l-.058594.066406c-.863282.921875-1.722656 1.84375-2.5625 2.761719-7.71875 8.371093-15.679688 17.4375-20.773438 28.105469-5.570312 11.664062-6.707031 24.066406-3.113281 34.027343 3.355469 9.335938 11.390625 16.664063 20.464844 18.671875zm49.558593-69.183594c-.878906-.472656-1.769531-.890624-2.675781-1.253906 1.289063.507813 2.539063 1.109375 3.726563 1.824219zm-2.726562-1.273437c-.425781-.167969-.855469-.324219-1.289062-.472656.4375.144531.863281.308593 1.289062.472656zm-9.027344-1.726563c.070313 0 .144532 0 .214844.003907-.042969-.003907-.085938-.003907-.128906-.003907-5.613282 0-11.316406 1.96875-15.652344 5.402344 4.390625-3.480468 9.917969-5.402344 15.566406-5.402344zm0 0"/></g><path d="m290.484375 447.683594c-1.621094-1.136719-3.71875-1.621094-7.019531-1.621094-1.121094 0-2.214844.054688-3.222656.101562l-.242188.011719c-.691406.035157-1.355469.066407-1.9375.085938-4.339844.082031-8.679688.128906-13.019531.175781l-9.421875.113281-144.414063 1.828125c-4.34375.050782-10.351562.621094-12.371093 4.949219-1.832032 3.863281.851562 8.597656 4.527343 10.609375 3.441407 1.859375 7.554688 2.015625 11.140625 2.015625l159.6875-.964844c5.382813-.035156 12.753906-.089843 16.910156-5.253906 1.601563-2.003906 2.414063-4.933594 2.066407-7.488281-.28125-1.96875-1.21875-3.554688-2.683594-4.5625zm0 0" fill="#bfc7d8"/><path d="m288.972656 362.929688c-1.039062-.417969-2.046875-.835938-3.050781-1.261719-4.667969-1.960938-9.367187-4.09375-13.910156-6.15625l-.671875-.304688c-10.445313-4.742187-21.242188-9.644531-32.398438-12.980469-11.859375-3.546874-24.722656-5.34375-38.238281-5.34375-10.695313 0-21.976563 1.128907-33.53125 3.355469-31.320313 6.023438-61.082031 21.03125-83.800781 42.253907l-5.011719 4.683593 5.992187 3.339844c6.234376 3.472656 13.367188 5.308594 20.628907 5.308594 6.007812 0 11.960937-1.292969 17.238281-3.75 1.996094-.9375 3.925781-2.019531 5.789062-3.066407 4.734376-2.648437 9.628907-5.386718 15.039063-5.5l.289063-.003906c5.878906 0 11.3125 3.0625 16.105468 5.769532 4.195313 2.363281 8.53125 4.808593 13.242188 5.640624 1.234375.214844 2.523437.324219 3.828125.324219 6.5 0 12.902343-2.707031 19.128906-5.335937 6.539063-2.769532 12.71875-5.386719 19.300781-5.386719.738282 0 1.476563.035156 2.199219.101563 5.066406.460937 9.566406 2.535156 14.351563 4.738281l.414062.1875c1.871094.855469 3.636719 1.664062 5.484375 2.382812 6.707031 2.617188 14.292969 3.945313 22.542969 3.945313 5.355468 0 10.972656-.566406 16.6875-1.6875 10.929687-2.144532 21.628906-6.078125 31.558594-10.007813l5.820312-2.304687-3.535156-5.167969c-4.742188-6.925781-13.625-10.558594-21.492188-13.773437zm0 0" fill="#f9d889"/><path d="m264.964844 485.289062c-4.210938-4.511718-7.730469-9.476562-10.453125-14.761718l.421875-5.421875-118.539063.714843-4.832031.066407-.144531 4.824219c-1.328125 5.84375-4.796875 11.695312-9.761719 16.476562l-9.136719 8.796875 160.128907-2.457031zm0 0" fill="#d8deec"/><path d="m133.4375 136.425781c18.484375 4.441407 37.597656 6.695313 56.800781 6.695313 16.433594 0 32.839844-1.660156 48.769531-4.929688 6.1875-1.273437 12.925782-3.300781 16.007813-8.699218 1.808594-3.183594 2.011719-7.011719 2.195313-10.382813l1.140624-20.585937.769532-4.027344-3.609375-1.617188c-1.5625-.699218-2.917969-1.445312-4.144531-2.28125l-3.5-2.394531-2.933594 3.066406c-8.277344 8.65625-20.253906 13.824219-32.035156 13.824219h-.167969c-11.945313-.054688-24.007813-5.386719-32.261719-14.265625l-2.890625-3.109375-3.535156 2.347656c-10.679688 7.085938-23.832031 10.988282-37.03125 10.988282-2.046875 0-4.113281-.09375-6.140625-.28125l-6.425782-.585938 5.757813 35.460938zm0 0" fill="#d8deec"/><path d="m285.464844 206.433594c10.730468-12.285156 13.292968-31.148438 6.230468-45.875-3.023437-6.28125-14.457031-26.769532-34.824218-26.769532-.425782 0-.855469.011719-1.257813.015626l-2.578125-1.324219-2.429687 1.578125c-2.308594 1.5-5.222657 2.644531-9.171875 3.59375l-4.074219.984375.257813 4.183593c.839843 13.605469 7.511718 27 17.882812 35.867188l.28125.238281c.410156.339844.828125.691407 1.265625 1.050781 2.730469 2.25 5.554687 4.578126 6.859375 7.855469 1.246094 3.117188.96875 6.515625.164062 10.660157-3.585937 18.460937-12.226562 35.40625-24.320312 47.707031-1.457031 1.476562-2.988281 2.90625-4.683594 4.375l-3.410156 2.945312 2.605469 3.699219c.710937 2.460938 1.355469 5.003906 1.921875 7.253906 2.09375 8.242188 4.257812 16.765625 9.21875 21.996094 6.625 6.980469 15.695312 11.046875 23.667968 14.304688 1.132813.464843 2.269532.921874 3.390626 1.367187l1.203124.484375c.660157.265625 1.324219.535156 1.984376.804688l2.917968 1.128906 2.304688-2.015625c14.058594-5.796875 22.015625-12.484375 29.351562-24.667969 7.886719-13.09375 10.066406-28.964844 5.839844-42.457031-4.492188-14.328125-16.785156-25.980469-30.597656-28.984375zm0 0" fill="#935252"/><path d="m146.183594 254.074219c-12.65625-10.203125-21.394532-25.257813-23.972656-41.304688-.628907-3.910156-1.203126-9.691406 1.042968-14.742187 1.53125-3.4375 4.230469-6.222656 6.894532-8.972656.539062-.5625 1.082031-1.125 1.621093-1.695313 10.890625-11.574219 17.988281-26.644531 19.980469-42.429687l.59375-4.722657-4.6875-.828125c-5.804688-1.023437-11.582031-2.261718-17.171875-3.679687l-1.710937-.4375-1.609376.738281c-11.757812 5.414062-24.226562 18.140625-31.027343 31.679688-6.324219 12.585937-8.105469 27.679687-4.878907 41.402343l.144532.628907c.710937 2.960937 1.515625 6.316406.113281 9.085937-.988281 1.945313-2.867187 3.21875-4.75 4.496094l-.640625.441406c-15.015625 10.3125-22.917969 30.671875-18.789062 48.414063 4.03125 17.324218 19.132812 31.679687 36.71875 34.90625l1.570312.289062 1.445312-.675781c3.445313-1.609375 7.011719-3.058594 10.65625-4.515625 1.144532-.457032 2.28125-.914063 3.410157-1.378906 7.980469-3.257813 17.046875-7.320313 23.675781-14.304688 4.710938-4.960938 6.0625-10.878906 7.625-17.707031l.042969-.183594c.386719-1.667969.789062-3.394531 1.246093-5.15625l.902344-3.488281-3.023437-1.960938c-1.976563-1.285156-3.753907-2.5625-5.421875-3.898437zm0 0" fill="#935252"/><path d="m342.894531 461.125c-8.710937-10.542969-20.9375-17.957031-34.429687-20.871094l-2.375-.464844-1.761719 1.410157-8.894531 5.203125-3.136719 1.910156.796875 3.558594c.023438.121094.054688.234375.074219.359375.359375 2.535156-.457031 5.480469-2.070313 7.503906-4.144531 5.171875-11.523437 5.21875-16.90625 5.253906l-22.761718.128907 4.171874 7.40625c8.882813 15.757812 24.578126 27.867187 41.992188 32.386718 5.382812 1.394532 10.996094 2.101563 16.683594 2.101563 13.398437 0 26.785156-3.984375 37.632812-11.1875l4.703125-.941407-.742187-4.738281c-1.691406-10.757812-6.179688-20.792969-12.976563-29.019531zm0 0" fill="#ffd2bb"/><path d="m263.902344 187.820312c-1.304688-3.265624-4.128906-5.597656-6.898438-7.882812-.519531-.425781-1.042968-.851562-1.550781-1.285156-9.964844-8.511719-16.601563-21.457032-17.753906-34.632813l-.476563-5.425781-5.363281.9375c-13.691406 2.382812-27.691406 3.59375-41.613281 3.59375-10.890625 0-21.964844-.746094-32.910156-2.226562l-4.980469-.671876-.648438 4.984376c-2.035156 15.691406-9.117187 30.660156-19.960937 42.167968-.519532.558594-1.058594 1.113282-1.636719 1.714844-2.613281 2.699219-5.316406 5.488281-6.847656 8.933594-1.710938 3.828125-2.046875 8.507812-1.054688 14.742187 2.585938 16.058594 11.328125 31.113281 23.980469 41.300781 11.789062 9.503907 26.683594 14.734376 41.9375 14.734376 1.171875 0 2.351562-.03125 3.519531-.09375 17.449219-.96875 34.980469-9.167969 48.097657-22.5 12.101562-12.308594 20.738281-29.257813 24.324218-47.71875.695313-3.582032 1.15625-7.351563-.164062-10.671876zm0 0" fill="#ffd2bb"/><path d="m114.40625 465.949219c-3.550781 0-7.625-.15625-11.046875-2.023438-3.417969-1.855469-6.1875-6.261719-4.695313-10.144531l1.5625-4.070312-3.824218-2.105469c-1.394532-.765625-3.683594-2.085938-6.105469-3.484375l-.773437-.445313c-1.75-1.011719-3.496094-2.019531-4.835938-2.769531l-1.675781-.9375-1.871094.425781c-13.25 3.003907-25.261719 10.367188-33.820313 20.730469-7.480468 9.046875-12.105468 20.121094-13.367187 32.019531l-.40625 3.808594 3.574219 1.378906c10.488281 4.0625 21.625 6.121094 33.101562 6.121094 10.949219-.003906 21.589844-1.882813 31.640625-5.59375 7.605469-2.816406 13.632813-6.222656 18.4375-10.417969 5.253907-4.601562 8.949219-10.1875 10.6875-16.152344l1.871094-6.4375-17.082031.101563h-1.371094zm0 0" fill="#ffd2bb"/><path d="m239.402344 275.726562c-1.289063-3.632812-2.320313-7.710937-3.230469-11.316406l-.121094-.476562c-.390625-1.527344-.785156-3.085938-1.199219-4.605469l-1.824218-6.679687-5.765625 3.832031c-11.023438 7.320312-23.34375 11.546875-35.621094 12.222656-1.25.066406-2.40625.101563-3.523437.101563-9.527344 0-19.238282-2.144532-28.085938-6.203126l-5.535156-2.539062-1.414063 5.921875c-.226562.945313-.441406 1.871094-.640625 2.757813-.949218 4.128906-1.847656 8.027343-3.453125 11.503906l-1.824219 3.949218 3.65625 2.351563c10.59375 6.824219 23.296876 10.996094 35.769532 11.75 1.40625.082031 2.84375.125 4.269531.125 6.914063 0 13.777344-.964844 20.375-2.828125-6.480469 11.300781-11.171875 24.777344-12.398437 35.777344l-.605469 5.453125 5.484375.101562c5.128906.09375 10.269531.46875 15.277344 1.109375l5.816406.746094-.183594-5.863281c-.242188-7.621094 2.800781-15.269531 6.109375-22.367188l1.128906-2.40625c3.078125-6.542969 6.257813-13.304687 7.367188-20.523437l1.8125-11.835938-1.289063.9375zm0 0" fill="#ed6d66"/><path d="m276.621094 394.191406c-5.796875 1.128906-11.410156 1.703125-16.679688 1.703125 0 0-.660156 0-.984375-.003906l-3.480469-.046875-3.101562-.335938c-5.324219-.574218-10.363281-1.777343-14.980469-3.578124-1.921875-.75-3.8125-1.609376-5.960937-2.605469-4.535156-2.078125-9.226563-4.230469-14.234375-4.699219-.449219-.050781-.914063-.070312-1.390625-.085938l-1.984375-.058593.015625-.582031-2.011719.523437-1.535156-.046875.03125.4375-2.90625.757812c-3.957031 1.03125-7.933594 2.710938-11.792969 4.34375-6.488281 2.734376-12.617188 5.320313-19.050781 5.320313l-.457031-.003906-2.964844-.058594-2.953125-.859375c-3.773438-1.101562-7.324219-3.105469-10.761719-5.042969-5.050781-2.835937-10.277344-5.769531-16.050781-5.769531h-.316407c-5.40625.117188-10.285156 2.84375-15.046874 5.507812l-4 2.207032.007812.027344-2.1875.992187c-5.148438 2.335937-10.976562 3.566406-16.863281 3.566406-4.378907 0-8.703125-.65625-12.863281-1.953125l-11.542969-3.601562 28.21875 53.640625.542969 4.519531 38.394531-.484375v-.007813l32.816406-.402343v-.003907l31.742187-.398437v-.003906l32.894532-.421875v.003906l17.195312-.21875c4.648438-.046875 10.148438-.105469 15.675782-.210938.644531-.011718 1.332031-.042968 2.042968-.089843l3.484375-.222657 1.023438-3.453124 29.65625-60.566407-11.828125 4.488281c-10.210938 3.875-18.175782 6.273438-25.8125 7.777344zm0 0" fill="#f7b36f"/><path d="m384.5 446.871094c-5.410156-11.324219-13.640625-20.707032-21.609375-29.34375-.851563-.921875-1.703125-1.839844-2.558594-2.761719-6.847656-7.382813-13.929687-15.015625-19.15625-23.492187-5.804687-9.414063-9.441406-19.851563-13.292969-30.898438-1.257812-3.617188-2.5625-7.355469-3.9375-11.019531-4.984374-13.28125-12.546874-29.875-26.921874-40.414063-2.46875-1.808594-5.050782-3.367187-7.699219-4.773437 11.152343-5.644531 18.546875-12.695313 25.179687-23.714844 8.613282-14.296875 10.976563-31.6875 6.332032-46.523437-4.308594-13.746094-14.617188-24.964844-27.230469-30.164063 8.214843-13.425781 9.429687-31.132813 2.597656-45.363281-8.21875-17.113282-21.226563-27.742188-35.523437-29.378906 1.167968-3.335938 1.367187-6.757813 1.527343-9.636719l1.066407-19.273438c7.734374.929688 15.863281-.65625 22.527343-4.964843 12.128907-7.851563 18.65625-23.644532 15.863281-38.402344-2.605468-13.765625-13.121093-26.152344-26.792968-31.550782-9.835938-3.886718-20.664063-4.046874-33.699219-.441406-.878906-2.980468-2.550781-5.863281-4.90625-8.335937-3.476563-3.648438-7.847656-5.976563-12.054687-7.949219-15.3125-7.183594-28.621094-9.757812-40.679688-7.871094-6.054688.949219-12 3.078125-17.679688 6.324219-3.832031 2.191406-7.480468 4.867187-10.839843 7.949219-7.15625 6.570312-13.230469 15.121094-18.050781 25.410156-.433594.9375-.78125 1.851562-1.039063 2.742188-11.480469-2.199219-22.605469-.617188-31.34375 4.613281-6.007813 3.59375-10.914063 9.507812-13.46875 16.226562-2.773437 7.304688-2.585937 14.816407.535156 21.152344 3.429688 6.972656 10.105469 12.449219 19.839844 16.28125 2.777344 1.09375 5.625 1.992187 8.511719 2.707031l4.503906 27.730469c-14.402344 6.855469-26.792969 21.683594-32.832031 33.707031-6.84375 13.621094-8.769531 29.949219-5.277344 44.792969l.152344.628906c.507812 2.132813 1.082031 4.546875.507812 5.679688-.402343.800781-1.75 1.710937-3.054687 2.589843l-.699219.476563c-16.914063 11.617187-25.480469 33.691406-20.832031 53.675781 3.722656 16 15.636718 29.457032 30.660156 35.710938-14.328125 10.542968-21.878906 27.101562-26.855469 40.359375-1.375 3.664062-2.679687 7.402343-3.9375 11.019531-3.851562 11.046875-7.488281 21.484375-13.292969 30.898438-5.226562 8.476562-12.308593 16.109374-19.15625 23.492187-.855468.921875-1.707031 1.839844-2.558593 2.761719-7.96875 8.636718-16.199219 18.019531-21.609375 29.34375-6.234375 13.046875-7.414063 26.5-3.3125 37.878906 4.773437 13.261719 17.214844 22.503906 29.988281 22.503906.511719 0 1.023437-.015625 1.535156-.042968 1.980469-.117188 3.621094-1.382813 4.328125-3.109376 10.230469 3.5625 21.082032 5.347657 31.929688 5.347657 11.375 0 22.75-1.960938 33.410156-5.902344 2.195312-.808594 4.261719-1.675781 6.226562-2.589844.195313.023438.382813.058594.585938.058594h.078125l158.03125-2.429687c1.054687-.015626 2.023437-.359376 2.824219-.933594 7.484375 5.570312 15.992187 9.757812 25.003906 12.09375 5.835938 1.511718 11.863281 2.253906 17.898438 2.253906 13.046874 0 26.117187-3.472656 37.34375-10.082031v.109375c-.105469 2.71875 1.984374 5.023437 4.703124 5.183594.511719.027343 1.023438.042968 1.535157.042968 12.769531 0 25.214843-9.242187 29.988281-22.503906 4.097656-11.378906 2.921875-24.832031-3.3125-37.878906zm-97.3125-284.140625c6.222656 12.960937 3.96875 29.582031-5.484375 40.417969-1.164063 1.332031-1.535156 3.179687-.980469 4.855468.554688 1.679688 1.957032 2.941406 3.683594 3.316406 12.113281 2.636719 22.917969 12.925782 26.886719 25.59375 3.804687 12.148438 1.804687 26.496094-5.351563 38.378907-6.816406 11.316406-13.890625 17.242187-27.035156 22.652343-.511719.210938-.957031.511719-1.351562.859376-1.078126-.441407-2.152344-.871094-3.21875-1.300782-1.125-.449218-2.246094-.902344-3.367188-1.359375-7.492188-3.054687-15.984375-6.839843-21.9375-13.117187-4.070312-4.285156-6.074219-12.191406-8.007812-19.835938-.613282-2.421875-1.25-4.925781-1.953126-7.355468-.160156-.550782-.425781-1.039063-.734374-1.480469 1.710937-1.476563 3.375-3.019531 4.972656-4.644531 12.78125-13 21.894531-30.855469 25.667968-50.269532.839844-4.332031 1.371094-8.964844-.425781-13.46875-1.78125-4.46875-5.269531-7.339844-8.34375-9.875-.503906-.414062-1.007812-.832031-1.5-1.25-9.371093-8-15.339843-20.039062-16.101562-32.339844 3.730469-.902343 7.507812-2.164062 10.722656-4.257812.742187.378906 1.578125.597656 2.46875.5625 18.097656-.761719 28.601563 18.113281 31.390625 23.917969zm-7.105469 277.640625c-.132812.265625-.222656.539062-.300781.8125-.632812.03125-1.246094.0625-1.816406.074218-5.210938.097657-10.421875.15625-15.636719.214844-25.371094.28125-51.25.507813-76.816406.894532-23.007813.347656-46.480469 2.363281-69.464844 1.160156-.164063-.007813-2.253906.046875-2.28125-.183594-.070313-.585938-.234375-1.167969-.523437-1.722656 0 0-22.613282-43.003906-22.613282-43.007813.765625 1.457031 8.304688 1.832031 9.867188 1.976563 3.761718.351562 7.566406.261718 11.308594-.28125 4.195312-.609375 8.171874-2 11.96875-3.808594 1.273437-.605469 2.53125-1.257812 3.769531-1.949219 4.550781-2.527343 10.304687-5.9375 15.632812-6.050781 4.527344-.082031 9.042969 2.441406 13.8125 5.132812 5.984375 3.371094 11.925781 7.128907 19.050781 6.792969 7.617188-.359375 14.574219-2.972656 21.523438-5.910156 5.101562-2.160156 10.335938-4.871094 15.980469-5.128906 5.589843-.257813 10.886719 2.222656 15.84375 4.503906 1.992187.917969 4.054687 1.867187 6.1875 2.695313 13.222656 5.15625 28.210937 5.210937 42.007812 2.507812 9.191407-1.804688 18.035157-4.75 26.628907-8.011719zm7.113281 16.234375c-2.457031 3.066406-7.355468 3.347656-13.035156 3.382812l-158.445312.960938c-3.414063.019531-7.289063.042969-9.96875-1.414063-1.816406-.984375-2.851563-3.09375-2.394532-4.066406.351563-.75 1.847657-2.015625 7.914063-2.09375l144.421875-1.824219 6.753906-.078125c5.238282-.058594 10.476563-.117187 15.714844-.21875.726562-.015625 1.511719-.050781 2.328125-.09375 2.460937-.125 5.828125-.296875 7.128906.613282.132813.09375.480469.335937.601563 1.171874.167968 1.175782-.261719 2.714844-1.019532 3.660157zm-11.539062-67.324219c-13.625 2.671875-26.226562 1.976562-36.449219-2.011719-1.855469-.722656-3.695312-1.566406-5.640625-2.464843-4.949218-2.277344-10.0625-4.628907-15.964844-5.167969-8.660156-.796875-16.421874 2.492187-23.933593 5.667969-7.054688 2.984374-13.71875 5.800781-20.121094 4.679687-3.863281-.675781-7.644531-2.808594-11.648437-5.0625-5.464844-3.082031-11.648438-6.539063-18.933594-6.417969-6.675782.140625-12.375 3.332032-17.398438 6.148438-1.894531 1.058594-3.679687 2.058594-5.472656 2.890625-10.507812 4.894531-23.238281 4.21875-33.308594-1.394531 22.039063-20.589844 50.816406-35.132813 81.332032-41.007813 25.480468-4.902344 48.824218-4.273437 69.386718 1.875 10.871094 3.25 21.546875 8.101563 31.871094 12.789063 4.761719 2.164062 9.683594 4.398437 14.609375 6.472656 1.007813.425781 2.054687.855468 3.125 1.292968 7.242187 2.960938 15.351563 6.289063 19.230469 11.957032-9.984375 3.953125-20.234375 7.703125-30.683594 9.753906zm-55.277344-56.726562c-.992187-.167969-1.980468-.324219-2.964844-.460938-5.132812-.710938-10.3125-.695312-15.488281-.519531.816407-10.101563 4.304688-20.136719 9.964844-28.507813.175781-.257812.3125-.527344.433594-.800781 5.058593-1.457031 9.921875-3.414063 14.476562-5.835937-3.550781 11.535156-5.242187 24.199218-6.421875 36.125zm-19.75-37.964844c-12.390625 1.800781-25.714844.292968-38.53125-4.359375-3.394531-1.234375-7.464844-2.976563-10.027344-5.78125 2.5-4.523438 4.101563-9.613281 5.242188-14.585938.207031-.894531.417969-1.800781.636719-2.71875 9.433593 4.328125 19.804687 6.65625 30.167969 6.65625 1.265624 0 2.535156-.035156 3.796874-.101562 13.257813-.734375 26.527344-5.359375 38.113282-13.054688.449218 1.652344.878906 3.347657 1.300781 5.003907 1.085937 4.304687 1.953125 8.707031 3.539063 12.863281-8.992188 8.46875-21.144532 14.175781-34.238282 16.078125zm-10.386718-146.46875c14.238281 0 28.472656-1.226563 42.476562-3.664063 1.265625 14.492188 8.4375 28.554688 19.492188 37.996094.535156.457031 1.085937.910156 1.636718 1.363281 2.355469 1.941406 4.582032 3.777344 5.414063 5.863282.839843 2.109374.445312 5.023437-.105469 7.855468-3.398438 17.507813-11.5625 33.546875-22.980469 45.167969-12.246093 12.457031-28.578125 20.113281-44.8125 21.011719-15.003906.820312-30.335937-4.109375-42.042969-13.539063-11.707031-9.433593-19.785156-23.355469-22.171874-38.203125-.835938-5.210937-.621094-8.996094.675781-11.90625 1.179687-2.652344 3.472656-5.015625 5.898437-7.519531.566406-.585937 1.132813-1.167969 1.6875-1.757813 11.5625-12.285156 19.082032-28.214843 21.261719-44.9375 11.117187 1.507813 22.34375 2.269532 33.570313 2.269532zm-55.640626-16.558594-4.191406-25.8125c16.164063 1.488281 32.84375-2.523438 46.390625-11.515625 9.140625 9.824219 22.488281 15.804687 35.902344 15.859375h.1875c13.265625 0 26.488281-5.78125 35.65625-15.367188 1.546875 1.054688 3.203125 1.949219 4.921875 2.710938-.039062.214844-.089844.425781-.101562.652344l-1.148438 20.746094c-.160156 2.96875-.332031 6.042968-1.554688 8.1875-2.082031 3.65625-7.570312 5.21875-12.664062 6.265624-33.980469 6.988282-69.65625 6.386719-103.398438-1.726562zm-19.453124-39.570312c-7.347657-2.894532-12.238282-6.726563-14.53125-11.394532-4.246094-8.621094 1.386718-19.769531 9.09375-24.382812 7.976562-4.773438 19.339843-5.4375 30.402343-1.785156 2.332031.769531 4.878907-.269532 6.007813-2.453126.972656-1.875.644531-4.121093-.722656-5.640624.070312-.382813.242187-1.003907.621093-1.816407 4.261719-9.101562 9.5625-16.601562 15.753907-22.285156 2.8125-2.578125 5.851562-4.808594 9.042968-6.632813 4.617188-2.640624 9.417969-4.363281 14.261719-5.125 10.023437-1.566406 21.4375.734376 34.886719 7.042969 3.839844 1.804688 6.851562 3.476563 9.058594 5.796875 2.109374 2.214844 3.175781 4.972656 2.785156 7.199219-.304688 1.742187.335937 3.519531 1.6875 4.667969 1.347656 1.148437 3.203125 1.496094 4.875.917968 13.417968-4.644531 23.847656-5.15625 32.824218-1.609374 10.558594 4.171874 18.65625 13.636718 20.640626 24.113281 2.058593 10.871093-2.660157 22.445312-11.46875 28.144531-8.828126 5.710938-21.789063 4.582031-28.890626-2.523438-1.023437-1.019531-2.441406-1.546874-3.871093-1.449218-1.4375.09375-2.765625.808594-3.640625 1.953125-7.242188 9.488281-19.132813 15.363281-31.070313 15.363281-.046875 0-.097656 0-.148437 0-11.984375-.046875-23.898438-6.03125-31.089844-15.617188-.804688-1.070312-2.003906-1.773437-3.328125-1.957031-.226563-.027343-.449219-.042969-.671875-.042969-1.101562 0-2.179688.363282-3.058594 1.042969-16.59375 12.832031-39.929687 16.15625-59.449218 8.472657zm-42.945313 179.023437c-3.675781-15.816406 3.367187-33.96875 16.753906-43.164063l.640625-.4375c2.136719-1.445312 4.796875-3.242187 6.375-6.359374 2.230469-4.402344 1.113282-9.089844.296875-12.511719l-.144531-.605469c-2.960938-12.59375-1.332031-26.449219 4.476562-38.007812 6.292969-12.527344 17.984376-24.480469 28.652344-29.390626 5.792969 1.46875 11.644532 2.722657 17.539063 3.765626-1.867188 14.75-8.476563 28.804687-18.664063 39.628906-.519531.554687-1.054687 1.101562-1.585937 1.652344-2.789063 2.878906-5.953125 6.140624-7.855469 10.410156-2.789062 6.261718-2.140625 13.023437-1.410156 17.5625 2.769531 17.253906 12.164062 33.4375 25.769531 44.402344 1.867187 1.503906 3.820313 2.894531 5.835937 4.199218-.488281 1.890625-.910156 3.703125-1.3125 5.464844-1.527343 6.644531-2.628906 11.445312-6.382812 15.402344-5.957031 6.273437-14.449219 10.0625-21.941406 13.117187-1.117188.457031-2.242188.90625-3.363282 1.359375-3.628906 1.453125-7.308593 2.941406-10.925781 4.636719-15.527343-2.859375-29.175781-15.742187-32.753906-31.125zm-43.554687 225.820313c-7.230469-1.59375-14.003907-7.605469-16.839844-15.472657-3.140625-8.71875-2.070313-19.71875 2.929687-30.183593 4.808594-10.070313 12.484375-18.796876 19.9375-26.871094.84375-.914063 1.6875-1.828125 2.535157-2.742188 7.175781-7.734375 14.597656-15.734375 20.335937-25.042968 6.378906-10.34375 10.367187-21.792969 14.226563-32.859376 1.242187-3.5625 2.523437-7.242187 3.859374-10.792968 4.496094-11.984375 11.226563-26.890625 23.472657-35.867188 6.003906-4.402344 13.046875-7.226562 20.5-10.21875 1.140625-.457031 2.28125-.917968 3.417969-1.378906 8.132812-3.316406 16.253906-7.089844 22.855468-13.011719 3.847656 3.628907 8.710938 5.746094 12.804688 7.234375 13.421875 4.875 27.398437 6.65625 40.609375 5.210938-4.261719 8.421875-6.835938 17.78125-7.421875 27.152344-8.617188.441406-17.179688 1.703124-25.644532 3.332031-33.167968 6.382812-64.441406 22.429687-88.058593 45.183593-.46875.449219-.820313.972657-1.074219 1.53125-.542969.1875-1.058594.472657-1.523438.855469-1.832031 1.503907-2.355468 4.089844-1.25 6.1875l29.015626 55.1875c-.820313.21875-1.640626.496094-2.449219.835938-.445313-.714844-1.054688-1.335938-1.851563-1.765625-1.332031-.714844-4.003906-2.257813-6.585937-3.75-.78125-.453125-1.546875-.894532-2.277344-1.316406-.164063-.597657-.433594-1.167969-.816406-1.679688-4.8125-6.460938-12.15625-10.765625-20.144531-11.808594-7.992188-1.039062-16.191407 1.234375-22.503907 6.242188-2.164062 1.714844-2.523437 4.863281-.808593 7.023437 1.71875 2.164063 4.863281 2.527344 7.023437.808594 4.144531-3.285156 9.75-4.839844 14.992187-4.15625 2.378907.308594 4.710938 1.082031 6.84375 2.234375-12.132812 3.84375-23.195312 11.203125-31.292968 21-9.027344 10.921875-14.191406 24.5625-14.816406 38.898438zm88.351562-12.160157c-4.332031 3.789063-9.851562 6.894531-16.875 9.492188-19.546875 7.222656-41.769531 7.015625-61.203125-.496094 1.15625-10.839844 5.371094-21.042969 12.25-29.363281 7.867187-9.515625 19.03125-16.308594 31.078125-19.042969 1.421875.800781 3.328125 1.902344 5.195312 2.984375 2.597657 1.5 5.042969 2.914062 6.550782 3.734375-2.472656 6.429687 1.558594 13.394531 6.976562 16.339844 4.4375 2.410156 9.300782 2.628906 13.433594 2.628906.464844 0 .925781-.003906 1.371094-.003906l10.414062-.066407c-1.453125 4.980469-4.664062 9.835938-9.191406 13.792969zm8.121094 6.113281c5.667968-5.445312 9.613281-12.113281 11.179687-18.972656.074219-.332031.113281-.664062.121094-.992187l113.105469-.6875c-.074219.898437.085937 1.828125.53125 2.691406 2.988281 5.773437 6.804687 11.105469 11.246094 15.867187zm224.085937.839844c-14.585937 9.675782-33.410156 12.828125-50.355469 8.4375-16.261718-4.21875-30.644531-15.363281-38.890624-29.992187l14.261718-.085938c6.03125-.039062 15.144532-.09375 20.78125-7.132812 2.476563-3.09375 3.667969-7.433594 3.109375-11.328125-.039062-.273438-.101562-.542969-.15625-.8125l8.992188-5.25c.164062-.097656.3125-.210938.460937-.320313 12.257813 2.644531 23.644532 9.503907 31.632813 19.164063 6.289062 7.609375 10.347656 16.800781 11.882812 26.605468-.59375.128907-1.179687.359376-1.71875.714844zm29.199219-10.265625c-2.835938 7.867188-9.609375 13.878907-16.84375 15.472657-.625-14.339844-5.785156-27.976563-14.8125-38.898438-8.097656-9.796875-19.160156-17.15625-31.292969-21 2.132813-1.148438 4.464844-1.921875 6.84375-2.234375 5.242188-.683594 10.847657.871094 14.992188 4.160156 2.160156 1.714844 5.308593 1.351563 7.023437-.808593 1.714844-2.164063 1.355469-5.308594-.808594-7.027344-6.3125-5.007813-14.511718-7.28125-22.503906-6.238282-7.988281 1.042969-15.332031 5.34375-20.144531 11.804688-.117187.152344-.214844.3125-.308594.476562-.433593.335938-.816406.738282-1.117187 1.203126l-7.578125 4.425781c-.484375-.238281-.976563-.445313-1.476563-.625l28.480469-58.171875c.910156-1.855469.582031-4.085938-.828125-5.601563-.445312-.476562-.972656-.839843-1.539062-1.105469-.023438-.054687-.035157-.109374-.058594-.164062-4.921875-10.285156-16.355469-14.960938-25.542969-18.714844-1.035156-.425781-2.046875-.839844-3.023437-1.25-4.800782-2.023437-9.65625-4.230468-14.355469-6.363281-10.628907-4.828125-21.621094-9.820313-33.144531-13.269531-3.289063-.980469-6.703126-1.933594-10.148438-2.789063 1.550781-16.007812 3.96875-33.4375 10.667969-46.695312.597656.710937 1.203125 1.429687 1.824219 2.175781 6.269531 7.53125 15.519531 11.625 24.480468 15.28125 1.136719.464844 2.277344.921875 3.417969 1.378906 7.453125 2.992188 14.492187 5.816406 20.5 10.21875 12.242187 8.976563 18.976563 23.882813 23.472656 35.867188 1.332031 3.550781 2.617188 7.234375 3.859375 10.792968 3.855469 11.070313 7.84375 22.515626 14.222656 32.859376 5.742188 9.308593 13.160157 17.308593 20.335938 25.042968.847656.914063 1.695312 1.828125 2.539062 2.742188 7.449219 8.074218 15.128907 16.800781 19.9375 26.871094 5 10.464843 6.066407 21.464843 2.929688 30.183593zm0 0"/></svg>