<svg height="512pt" viewBox="0 -10 512 511" width="512pt" xmlns="http://www.w3.org/2000/svg"><path d="m127.480469 103.699219v-33.8125c0-38.261719 31.128906-69.386719 69.386719-69.386719h118.265624c38.257813 0 69.386719 31.125 69.386719 69.386719v73.132812h-38.503906v-73.132812c0-17.03125-13.855469-30.882813-30.882813-30.882813h-118.265624c-17.027344 0-30.882813 13.851563-30.882813 30.882813v72.785156h-38.503906zm0 0" fill="#636363"/><path d="m165.984375 103.699219h-28.765625c-3.273438 0-6.519531.121093-9.738281.347656v38.625h38.503906zm0 0" fill="#424242"/><path d="m346.015625 143.019531h38.503906v-38.972656c-3.21875-.226563-6.464843-.347656-9.738281-.347656h-28.765625zm0 0" fill="#424242"/><path d="m483.402344 491.34375h-454.804688c-15.792968 0-28.597656-12.804688-28.597656-28.597656v-182.949219c0-75.734375 61.394531-137.125 137.125-137.125h237.75c75.730469 0 137.125 61.390625 137.125 137.125v182.949219c0 15.792968-12.804688 28.597656-28.597656 28.597656zm0 0" fill="#eeedee"/><path d="m374.78125 142.671875h-60.359375c75.785156 0 137.21875 61.433594 137.21875 137.21875v181.691406c0 16.4375-13.324219 29.761719-29.757813 29.761719h60.355469c16.4375 0 29.761719-13.324219 29.761719-29.761719v-181.691406c0-75.785156-61.433594-137.21875-137.21875-137.21875zm0 0" fill="#cccbcc"/><path d="m0 461.582031c0 16.4375 13.324219 29.761719 29.761719 29.761719h452.476562c16.4375 0 29.761719-13.324219 29.761719-29.761719v-37.882812h-512zm0 0" fill="#ef2d57"/><path d="m451.640625 423.699219v37.882812c0 16.4375-13.324219 29.761719-29.757813 29.761719h60.355469c16.4375 0 29.761719-13.324219 29.761719-29.761719v-37.882812zm0 0" fill="#bf2445"/><path d="m321.34375 262.917969h-35.164062v-35.164063c0-9.027344-7.320313-16.347656-16.347657-16.347656h-27.664062c-9.027344 0-16.347657 7.320312-16.347657 16.347656v35.164063h-35.164062c-9.027344 0-16.347656 7.320312-16.347656 16.347656v27.664063c0 9.027343 7.320312 16.347656 16.347656 16.347656h35.164062v35.164062c0 9.027344 7.320313 16.347656 16.347657 16.347656h27.664062c9.027344 0 16.347657-7.320312 16.347657-16.347656v-35.164062h35.164062c9.027344 0 16.347656-7.320313 16.347656-16.347656v-27.664063c0-9.027344-7.320312-16.347656-16.347656-16.347656zm0 0" fill="#ef2d57"/></svg>