<svg id="Layer_1" enable-background="new 0 0 497 497" height="512" viewBox="0 0 497 497" width="512" xmlns="http://www.w3.org/2000/svg"><g><g><g><path d="m0 497v-25.892c0-44.367 24.687-85.048 64.041-105.533l37.959-19.758c13.187-6.864 21.459-20.495 21.459-35.362v-35.338h49.687v35.338c0 14.867 8.272 28.498 21.459 35.362l37.959 19.758c8.568 4.459 13.561 7.434 20.634 13.638l22.301 15.62-67.332 102.167z" fill="#fcd1b3"/><path d="m253.199 379.214c-7.074-6.204-12.067-9.178-20.634-13.638l-37.959-19.758c-13.187-6.864-21.459-20.495-21.459-35.362v-35.338h-40v35.338c0 14.866 8.272 28.498 21.459 35.362l37.959 19.758c8.568 4.46 13.561 7.434 20.634 13.638l22.301 15.62-67.333 102.166h40l67.333-102.167z" fill="#fcc29a"/><g><g><path d="m256 380.583c-7.074-6.204-14.868-10.548-23.435-15.008l-28.278-14.719-53.476 53.477-55.192-55.193-31.577 16.436c-39.355 20.484-64.042 61.165-64.042 105.532v25.892h168.5l107-102.167z" fill="#1cca96"/></g><g><path d="m250.5 401.833-46.035 60.826 71.035-67.826-19.5-14.25c-7.074-6.204-14.868-10.548-23.435-15.008l-28.278-14.719-13.693 13.693c0 .001 44.148 21.51 59.906 37.284z" fill="#19b586"/></g><g><path d="m37.741 179.695v-70.523c0-60.294 48.876-109.172 109.168-109.172 60.292 0 109.169 48.878 109.169 109.171v69.497z" fill="#b55c22"/><path d="m146.909 0c-5.09 0-10.096.356-15 1.031 53.193 7.311 84.169 52.937 84.169 108.141v69.497l-178.337.886v.141l218.337-1.027v-69.497c0-60.295-48.877-109.172-109.169-109.172z" fill="#a84c0f"/><path d="m77.837 198.069h-34.7c-8.119 0-14.701-6.582-14.701-14.701 0-8.119 6.582-14.701 14.701-14.701h34.7z" fill="#fcc29a"/><path d="m214.742 168.668h34.7c8.119 0 14.701 6.582 14.701 14.701 0 8.119-6.582 14.701-14.701 14.701h-34.7z" fill="#fcc29a"/><path d="m57.837 148.736v93.233c0 18.656 11.247 35.471 28.489 42.593 38.36 15.845 81.433 15.857 119.802.033l.101-.042c17.255-7.116 28.513-23.938 28.513-42.603v-133.484c0-15.109-12.248-27.358-27.357-27.358h-2.961c-7.681 0-14.635 3.113-19.668 8.147-18.034 18.034-38.623 33.314-61.9 43.736l-5.215 2.335c-18.834 8.433-39.172 12.993-59.804 13.41z" fill="#fcd1b3"/><path d="m207.385 81.108h-2.961c-7.156 0-13.678 2.704-18.607 7.144 5.483 5.003 8.925 12.207 8.925 20.214v133.485c0 18.665-11.258 35.486-28.513 42.603l-.101.042c-12.876 5.311-26.283 8.829-39.863 10.572 26.858 3.449 54.397-.069 79.863-10.572l.101-.042c17.255-7.116 28.513-23.938 28.513-42.603v-133.485c0-15.11-12.248-27.358-27.357-27.358z" fill="#fcc29a"/></g></g></g><g><path d="m326.925 497 31.574-80.207c2.347-5.961 8.101-9.88 14.508-9.88h67.52c23.945 0 45.031-15.768 51.8-38.736l4.197-14.24c2.169-7.358-3.347-14.734-11.018-14.734h-31.684c-4.93 0-9.57-2.332-12.512-6.289l-25.495-34.292c-8.957-12.047-23.085-19.148-38.097-19.148l-52.772 11.026-158.026 206.5z" fill="#fcd1b3"/><g fill="#fcc29a"><path d="m485.506 339.201h-24.756s-2.057 7.376-4.226 14.734l-4.197 14.24c-6.77 22.968-27.855 38.736-51.8 38.736h40c23.945 0 45.031-15.768 51.8-38.736l4.197-14.24c2.169-7.358-3.347-14.734-11.018-14.734z"/><path d="m318.499 416.792-31.574 80.208h40l31.574-80.208c2.347-5.961 8.101-9.88 14.508-9.88h-40c-6.407 0-12.161 3.919-14.508 9.88z"/></g><path d="m296.503 294.595 31.356 59.53c5.413 10.276 20.477 9.152 24.304-1.814l24.508-70.226c3.373-9.666-4.991-19.356-15.046-17.43l-55.865 10.697c-8.764 1.676-13.416 11.346-9.257 19.243z" fill="#b55c22"/><g><path d="m496.524 353.936c2.169-7.358-3.347-14.734-11.018-14.734h-17.477c0 12.399 7.994 30.897 22.009 33.004h.924c.503-1.317.961-2.66 1.365-4.03z" fill="#b55c22"/></g></g></g><path d="m117.984 457.11h-17.69v-17.69c0-9.385-15-9.813-15 0v17.69h-17.69c-9.385 0-9.813 15 0 15h17.69v17.69c0 9.385 15 9.813 15 0v-17.69h17.69c9.386 0 9.813-15 0-15z" fill="#f5f7fa"/></g></svg>