<svg id="Capa_1" enable-background="new 0 0 512 512" height="512" viewBox="0 0 512 512" width="512" xmlns="http://www.w3.org/2000/svg"><g><path d="m331 1.346c-1.946-.894-4.032-1.346-6.213-1.346h-68.787-68.787c-2.183 0-4.266.464-6.213 1.358l-15 28.642 15 30h75 75l15-33.281z" fill="#fb9"/><path d="m346 26.719-15-25.373c-1.946-.894-4.032-1.346-6.213-1.346h-68.787v60h75z" fill="#ffaa80"/><path d="m181 1.358c-1.6.736-3.124 1.766-4.393 3.035l-51.215 51.213c-2.812 2.814-4.392 6.628-4.392 10.607v114.787h60v-121z" fill="#fdc"/><path d="m386.607 55.605-51.214-51.212c-1.269-1.269-2.791-2.311-4.393-3.047v58.654 121h60v-114.787c0-3.979-1.58-7.793-4.393-10.608z" fill="#ffccb3"/><path d="m436 151h-180-180c-8.291 0-15 6.709-15 15v331c0 8.291 6.709 15 15 15h180 180c8.291 0 15-6.709 15-15v-331c0-8.291-6.709-15-15-15z" fill="#a8e62e"/><path d="m451 497v-331c0-8.291-6.709-15-15-15h-180v361h180c8.291 0 15-6.709 15-15z" fill="#95cc29"/><path d="m361 271c0-33.647-19.761-60-45-60s-45 26.353-45 60c0 26.561 12.398 48.347 30 56.442v108.558c0 8.291 6.709 15 15 15s15-6.709 15-15v-108.558c17.602-8.095 30-29.881 30-56.442z" fill="#d5e8fe"/><path d="m226 211c-8.291 0-15 6.709-15 15v60c0 8.276-6.724 15-15 15s-15-6.724-15-15v-60c0-8.291-6.709-15-15-15s-15 6.709-15 15v60c0 19.53 12.578 36.024 30 42.237v107.763c0 8.291 6.709 15 15 15s15-6.709 15-15v-107.763c17.422-6.213 30-22.707 30-42.237v-60c0-8.291-6.709-15-15-15z" fill="#edf5ff"/></g></svg>