<?xml version="1.0" encoding="iso-8859-1"?>
<!-- Generator: Adobe Illustrator 19.0.0, SVG Export Plug-In . SVG Version: 6.00 Build 0)  -->
<svg version="1.1" id="Capa_1" xmlns="http://www.w3.org/2000/svg" xmlns:xlink="http://www.w3.org/1999/xlink" x="0px" y="0px"
	 viewBox="0 0 468.287 468.287" style="enable-background:new 0 0 468.287 468.287;" xml:space="preserve">
<ellipse style="fill:#FCD462;" cx="175.916" cy="81.557" rx="81.545" ry="81.545"/>
<circle style="fill:#E56353;" cx="175.919" cy="81.553" r="53.073"/>
<path style="fill:#DC8744;" d="M380.026,202.185c-19.839-1.891-36.529,13.659-36.529,33.107v-19.89
	c0-17.373-12.702-32.888-29.996-34.536c-19.839-1.892-36.53,13.659-36.53,33.107l0-19.889c0-17.373-12.701-32.887-29.995-34.537
	c-19.839-1.892-36.531,13.658-36.531,33.107l0-110.708c0-17.373-12.701-32.887-29.995-34.536
	c-19.839-1.892-36.531,13.658-36.531,33.107v191.533h-0.005l-24.639-33.005c-10.96-14.681-32.399-18.378-47.642-8.215l-0.002,0.001
	c-14.721,10.99-17.746,31.833-6.756,46.553l80.823,161.988c8.841,17.72,26.942,28.917,46.745,28.917h165.339
	c28.852,0,52.241-23.389,52.241-52.241V261.469v-24.748C410.023,219.348,397.321,203.833,380.026,202.185z"/>
<g>
</g>
<g>
</g>
<g>
</g>
<g>
</g>
<g>
</g>
<g>
</g>
<g>
</g>
<g>
</g>
<g>
</g>
<g>
</g>
<g>
</g>
<g>
</g>
<g>
</g>
<g>
</g>
<g>
</g>
</svg>
