<?xml version="1.0" encoding="iso-8859-1"?>
<!-- Generator: Adobe Illustrator 21.0.0, SVG Export Plug-In . SVG Version: 6.00 Build 0)  -->
<svg xmlns="http://www.w3.org/2000/svg" xmlns:xlink="http://www.w3.org/1999/xlink" version="1.1" id="Capa_1" x="0px" y="0px" viewBox="0 0 512 512" style="enable-background:new 0 0 512 512;" xml:space="preserve" width="512" height="512">
<g>
	<path style="fill:#B5FCFF;" d="M353.863,512H123.103c-17.069,0-30.905-13.837-30.905-30.905V30.905   C92.197,13.837,106.034,0,123.103,0h230.761c17.069,0,30.905,13.837,30.905,30.905v450.189   C384.769,498.163,370.932,512,353.863,512z"/>
	<path style="fill:#71F6FC;" d="M353.863,0h-30.905c17.069,0,30.905,13.837,30.905,30.905v450.189   c0,17.069-13.837,30.905-30.905,30.905h30.905c17.069,0,30.905-13.837,30.905-30.905V30.905C384.769,13.837,370.932,0,353.863,0z"/>
	<rect x="92.197" y="433.706" style="fill:#3BE3EB;" width="292.571" height="30.905"/>
	<rect x="353.863" y="433.706" style="fill:#2BC3D4;" width="30.905" height="30.905"/>
	<path style="fill:#50536E;" d="M353.863,512H123.103c-17.069,0-30.905-13.837-30.905-30.905v-16.483h292.571v16.483   C384.769,498.163,370.932,512,353.863,512z"/>
	<g>
		<path style="fill:#B5FCFF;" d="M259.087,495.806H217.88c-4.142,0-7.5-3.358-7.5-7.5s3.358-7.5,7.5-7.5h41.207    c4.142,0,7.5,3.358,7.5,7.5S263.229,495.806,259.087,495.806z"/>
	</g>
	<path style="fill:#484B63;" d="M353.863,464.612v16.483c0,17.069-13.837,30.905-30.905,30.905h30.905   c17.069,0,30.905-13.837,30.905-30.905v-16.483H353.863z"/>
	<path style="fill:#50536E;" d="M123.103,0h230.761c17.069,0,30.905,13.837,30.905,30.905v16.483H92.197V30.905   C92.197,13.837,106.034,0,123.103,0z"/>
	<path style="fill:#484B63;" d="M353.863,0h-30.905c17.069,0,30.905,13.837,30.905,30.905v16.483h30.905V30.905   C384.769,13.837,370.932,0,353.863,0z"/>
	<path style="fill:#FFD659;" d="M436.14,280.724h-92.382c-21.186,0-38.36,17.151-38.36,38.309v42.501   c0,1.883-1.308,3.507-3.147,3.909c-9.119,1.992-35.151,5.748-38.908-15.214c-0.192-1.07-1.713-1.101-1.944-0.038   c-2.818,12.939-5.054,44.976,40.343,49.294c2.066,0.197,3.656,1.909,3.656,3.984v33.651c0,21.157,17.174,38.309,38.36,38.309   h92.382c21.186,0,38.36-17.151,38.36-38.309V319.033C474.5,297.876,457.326,280.724,436.14,280.724z"/>
	<g>
		<path style="fill:#FFBD54;" d="M436.14,280.724h-30.92c21.186,0,38.36,17.151,38.36,38.309V437.12    c0,21.157-17.174,38.309-38.36,38.309h30.92c21.186,0,38.36-17.151,38.36-38.309V319.033    C474.5,297.876,457.326,280.724,436.14,280.724z"/>
	</g>
	<g>
		<path style="fill:#50536E;" d="M435.334,361.053h-92.761c-4.142,0-7.5,3.357-7.5,7.5s3.358,7.5,7.5,7.5h92.761    c4.142,0,7.5-3.357,7.5-7.5S439.476,361.053,435.334,361.053z"/>
		<path style="fill:#50536E;" d="M382.765,391.695h-40.192c-4.142,0-7.5,3.357-7.5,7.5s3.358,7.5,7.5,7.5h40.192    c4.142,0,7.5-3.357,7.5-7.5S386.907,391.695,382.765,391.695z"/>
		<path style="fill:#50536E;" d="M342.573,344.885h92.761c4.142,0,7.5-3.357,7.5-7.5s-3.358-7.5-7.5-7.5h-92.761    c-4.142,0-7.5,3.357-7.5,7.5S338.431,344.885,342.573,344.885z"/>
	</g>
	<path style="fill:#FF2C5C;" d="M439.368,139.59c0,9.651-10.099,17.847-12.478,26.748c-2.462,9.21,2.114,21.344-2.551,29.408   c-4.733,8.18-17.573,10.255-24.212,16.893c-6.638,6.638-8.713,19.479-16.893,24.211c-8.064,4.665-20.197,0.089-29.407,2.551   c-8.901,2.379-17.097,12.478-26.748,12.478c-9.651,0-17.847-10.099-26.748-12.478c-9.21-2.462-21.344,2.114-29.408-2.551   c-8.18-4.733-10.255-17.573-16.893-24.212c-6.638-6.638-19.479-8.713-24.211-16.893c-4.665-8.064-0.089-20.197-2.551-29.407   c-2.379-8.901-12.478-17.097-12.478-26.748c0-9.651,10.099-17.847,12.478-26.748c2.462-9.21-2.114-21.344,2.551-29.408   c4.733-8.18,17.573-10.255,24.212-16.893c6.638-6.638,8.713-19.479,16.893-24.211c8.064-4.665,20.197-0.089,29.407-2.551   c8.901-2.379,17.097-12.478,26.748-12.478c9.651,0,17.847,10.099,26.748,12.478c9.21,2.462,21.344-2.114,29.408,2.551   c8.18,4.733,10.255,17.573,16.893,24.212c6.638,6.638,19.479,8.713,24.211,16.893c4.665,8.064,0.089,20.197,2.551,29.407   C429.269,121.743,439.368,129.938,439.368,139.59z"/>
	<g>
		<path style="fill:#FFD659;" d="M254.173,310.618l-114.809,58.734l-56.029-56.002l58.763-114.754    c0.712-1.39,2.572-1.683,3.676-0.58l108.98,108.927C255.857,308.048,255.563,309.907,254.173,310.618z"/>
		<path style="fill:#FF2C5C;" d="M94.952,402.906l-2.926,2.924c-12.474,12.467-32.691,12.467-45.164,0l0,0    c-12.482-12.476-12.482-32.709,0-45.185l2.905-2.903L94.952,402.906z"/>
		<path style="fill:#50536E;" d="M166.48,434.851L166.48,434.851c-6.036,6.033-15.818,6.033-21.854,0l-63.411-63.38l21.864-21.853    l63.4,63.37C172.519,419.024,172.519,428.815,166.48,434.851z"/>
		<path style="fill:#FFBD54;" d="M142.098,198.597l-13.363,26.096l99.33,99.282l26.109-13.357c1.39-0.711,1.684-2.57,0.58-3.674    l-108.98-108.927C144.669,196.914,142.809,197.207,142.098,198.597z"/>
		<path style="fill:#4FC6F5;" d="M141.575,372.33l-37.64,37.622c-1.681,1.68-4.405,1.68-6.085,0l-55.131-55.104    c-1.682-1.681-1.682-4.407,0-6.088l37.64-37.622c1.681-1.68,4.405-1.68,6.085,0l55.131,55.104    C143.257,367.923,143.257,370.649,141.575,372.33z"/>
		<path style="fill:#3BB3E3;" d="M80.358,311.139l-21.864,21.853c1.681-1.68,4.407-1.68,6.088,0l55.131,55.104    c1.681,1.68,1.681,4.405,0,6.085l21.864-21.853c1.681-1.68,1.681-4.405,0-6.085l-55.131-55.104    C84.765,309.459,82.039,309.458,80.358,311.139z"/>
	</g>
	<g>
		<circle style="fill:#B5FCFF;" cx="293.083" cy="103.533" r="16.483"/>
		<circle style="fill:#B5FCFF;" cx="363.135" cy="172.555" r="16.483"/>
	</g>
	<path style="fill:#B5FCFF;" d="M372.611,93.542c-2.929-2.928-7.678-2.928-10.606,0l-78.397,78.397   c-2.929,2.93-2.929,7.678,0,10.607c1.464,1.464,3.384,2.196,5.303,2.196s3.839-0.732,5.303-2.196l78.397-78.397   C375.54,101.22,375.54,96.472,372.611,93.542z"/>
</g>















</svg>
