<?xml version="1.0" encoding="iso-8859-1"?>
<!-- Generator: Adobe Illustrator 19.0.0, SVG Export Plug-In . SVG Version: 6.00 Build 0)  -->
<svg version="1.1" id="Capa_1" xmlns="http://www.w3.org/2000/svg" xmlns:xlink="http://www.w3.org/1999/xlink" x="0px" y="0px"
	 viewBox="0 0 414.038 414.038" style="enable-background:new 0 0 414.038 414.038;" xml:space="preserve">
<g>
	<path style="fill:#D4E1F4;" d="M157.678,309.548c-28.735,0-52.245,23.51-52.245,52.245c0,28.735,23.51,52.245,52.245,52.245
		s52.245-23.51,52.245-52.245C209.922,333.058,186.412,309.548,157.678,309.548z"/>
	<path style="fill:#D4E1F4;" d="M312.322,309.548c-28.735,0-52.245,23.51-52.245,52.245c0,28.735,23.51,52.245,52.245,52.245
		c28.735,0,52.245-23.51,52.245-52.245C364.567,333.058,341.057,309.548,312.322,309.548z"/>
</g>
<path style="fill:#4DCFE0;" d="M402.706,102.136c-3.135-3.657-7.314-5.747-12.016-5.747H115.882l-14.106-72.098
	c-1.045-6.269-6.269-11.494-12.539-12.539L26.543,0.258C18.184-1.309,9.824,4.438,8.257,12.797s4.18,16.718,12.539,18.286
	l52.245,9.404l14.629,74.71l31.347,157.78c1.567,7.314,7.837,12.539,15.151,12.539h219.429c7.314,0,13.584-5.224,15.151-12.016
	l36.571-158.302C406.886,111.017,405.841,105.793,402.706,102.136z"/>
<g>
</g>
<g>
</g>
<g>
</g>
<g>
</g>
<g>
</g>
<g>
</g>
<g>
</g>
<g>
</g>
<g>
</g>
<g>
</g>
<g>
</g>
<g>
</g>
<g>
</g>
<g>
</g>
<g>
</g>
</svg>
